<?xml version="1.0" standalone="no"?>
<!DOCTYPE svg PUBLIC "-//W3C//DTD SVG 20010904//EN"
 "http://www.w3.org/TR/2001/REC-SVG-20010904/DTD/svg10.dtd">
<svg version="1.0" xmlns="http://www.w3.org/2000/svg"
 width="16.000000pt" height="16.000000pt" viewBox="0 0 16.000000 16.000000"
 preserveAspectRatio="xMidYMid meet">
<metadata>
Created by potrace 1.11, written by Peter Selinger 2001-2013
</metadata>
<g transform="translate(0.000000,16.000000) scale(0.004124,-0.004124)"
fill="#000000" stroke="none">
<path d="M2103 3715 c-46 -89 -118 -280 -137 -360 -22 -94 -54 -216 -77 -295
-17 -58 -28 -104 -59 -245 -5 -22 -13 -52 -18 -66 -6 -14 -13 -41 -16 -60 -3
-19 -12 -54 -21 -79 -9 -25 -20 -67 -25 -95 -10 -62 -64 -277 -107 -425 -20
-69 -50 -130 -64 -130 -7 0 -10 22 -8 58 1 31 -1 65 -6 75 -4 11 -3 23 3 29 8
8 6 15 -4 25 -8 9 -12 23 -9 34 4 10 -1 29 -10 41 -16 23 -16 23 -10 -7 3 -17
-3 -9 -14 20 -24 63 -26 86 -6 79 21 -9 19 10 -5 31 -11 10 -20 26 -20 35 0
10 -11 61 -25 113 -14 53 -22 103 -19 111 3 9 -3 17 -16 21 -12 4 -31 26 -42
48 -11 23 -28 58 -39 77 -12 23 -16 45 -13 64 5 24 3 28 -10 23 -8 -3 -18 -2
-21 3 -4 6 -14 10 -23 10 -14 -1 -14 -2 3 -12 19 -11 18 -12 -9 -19 -33 -9
-66 4 -66 27 0 14 -14 15 -106 10 -58 -3 -123 -11 -143 -17 -20 -7 -41 -13
-48 -15 -22 -5 -8 -115 21 -166 14 -26 26 -54 26 -63 0 -9 4 -14 9 -10 12 7
30 -26 33 -59 1 -14 4 -23 6 -21 2 2 18 -21 34 -52 17 -31 36 -63 44 -70 8 -8
14 -26 14 -39 0 -14 11 -50 25 -80 14 -30 25 -61 25 -70 0 -8 7 -29 17 -47 14
-28 17 -30 23 -13 6 18 7 18 13 2 11 -28 8 -48 -5 -40 -8 5 -9 2 -5 -10 4 -10
7 -20 7 -22 0 -3 5 -2 10 1 15 9 30 -39 23 -78 -5 -33 -4 -34 26 -29 17 2 31
9 31 14 0 5 5 6 10 3 6 -3 10 -1 10 5 0 6 -7 13 -15 16 -8 4 -15 18 -15 33 0
49 -12 106 -26 117 -9 8 -11 19 -4 40 5 17 9 21 9 11 1 -11 6 -15 12 -11 7 4
9 0 5 -13 -4 -12 4 -38 19 -67 14 -26 25 -54 25 -62 0 -7 4 -14 10 -14 14 0
40 -67 40 -102 0 -23 4 -29 15 -24 19 7 31 -19 17 -37 -8 -9 -7 -24 3 -52 8
-22 14 -56 14 -75 l0 -35 -15 25 c-8 14 -14 18 -13 10 3 -26 -12 -51 -25 -41
-11 9 -17 11 -36 11 -5 0 -11 10 -11 23 -1 16 -3 17 -6 5 -2 -10 3 -32 12 -51
8 -18 17 -49 20 -69 2 -19 14 -56 25 -82 11 -26 22 -57 24 -69 2 -12 7 -42 11
-67 9 -57 22 -81 60 -112 56 -45 107 -70 133 -63 28 7 82 63 82 85 0 8 6 27
14 41 7 14 19 70 26 125 13 111 37 231 81 411 16 67 29 139 29 160 0 62 29
187 47 200 14 11 15 19 5 49 -9 29 -7 53 9 127 11 50 25 97 30 103 5 7 7 24 3
39 -5 21 -3 27 15 32 20 5 27 30 21 72 -1 7 4 36 11 65 7 28 12 59 11 70 0 10
6 25 14 33 7 8 15 29 15 46 2 40 1 36 23 130 10 43 16 86 13 97 -3 11 3 26 14
36 17 15 17 19 3 46 -14 27 -14 31 1 42 15 11 27 75 26 140 0 10 7 29 15 41 9
14 17 58 20 116 3 52 9 98 15 104 15 15 10 28 -6 15 -12 -10 -15 -10 -15 2 0
8 6 20 13 27 9 11 9 14 0 18 -10 3 -10 10 -2 24 6 11 9 28 7 37 -3 11 -15 -5
-35 -43z"/>
<path d="M2725 2820 c-22 -11 -92 -42 -155 -70 -63 -28 -131 -64 -151 -80 -20
-16 -55 -39 -78 -51 -40 -20 -73 -59 -52 -59 5 0 13 5 16 10 3 6 11 10 17 10
6 0 -9 -18 -33 -40 -26 -23 -36 -37 -24 -33 19 6 19 5 -2 -19 -13 -13 -23 -29
-23 -35 0 -6 -6 -14 -12 -16 -7 -3 -2 -6 12 -6 24 -1 23 -2 -10 -22 -19 -12
-39 -28 -43 -35 -4 -8 -14 -14 -21 -14 -13 0 -29 -23 -31 -45 0 -5 -12 -22
-25 -36 -57 -61 -106 -190 -111 -291 -2 -36 3 -52 27 -82 16 -20 43 -44 59
-52 17 -8 54 -36 83 -63 74 -68 149 -99 248 -101 68 -2 209 20 236 36 21 13
25 -10 7 -41 -11 -18 -19 -40 -17 -47 3 -13 -118 -204 -155 -245 -11 -13 -17
-23 -13 -23 5 0 -2 -9 -15 -20 -13 -10 -20 -19 -14 -20 5 0 -1 -7 -13 -16 -12
-8 -22 -21 -22 -28 0 -8 -7 -19 -15 -26 -8 -7 -15 -20 -15 -30 0 -10 -18 -41
-39 -68 -22 -27 -37 -53 -33 -56 3 -4 2 -10 -4 -14 -5 -4 -18 -24 -27 -44 -10
-21 -22 -38 -27 -38 -5 0 -11 -8 -15 -17 -3 -10 -28 -42 -55 -72 -37 -40 -47
-57 -38 -63 10 -7 7 -13 -9 -25 -13 -8 -23 -21 -23 -27 0 -11 -89 -127 -139
-182 -16 -18 -40 -49 -54 -70 -13 -22 -32 -45 -41 -53 -12 -10 -14 -17 -5 -27
15 -18 4 -44 -19 -44 -26 0 -122 -116 -122 -148 0 -7 -4 -12 -9 -12 -5 0 -11
-8 -15 -17 -3 -10 -24 -47 -45 -83 -21 -36 -37 -67 -34 -70 2 -3 20 13 38 35
19 22 50 56 70 77 19 20 30 38 24 40 -8 3 -7 13 5 33 l16 30 -6 -27 c-5 -21
-2 -28 9 -28 11 0 15 8 14 26 -1 17 5 30 18 38 11 6 24 17 28 24 4 6 14 12 21
12 7 0 23 11 36 25 12 13 28 22 33 18 6 -4 8 0 4 9 -4 11 1 18 16 22 12 3 33
21 46 41 13 19 32 35 41 35 10 0 21 7 24 16 5 13 3 14 -7 6 -8 -7 -18 -7 -27
-2 -12 8 -11 13 8 30 25 23 21 40 -9 40 -10 0 -19 5 -19 10 0 6 5 10 10 10 6
0 24 10 40 22 24 17 32 19 45 8 10 -8 15 -9 16 -1 1 6 2 15 3 21 1 12 67 61
75 56 3 -2 15 5 25 15 13 13 15 19 6 19 -9 0 -8 6 5 20 10 11 27 20 37 20 18
0 18 -1 1 -28 l-17 -27 24 20 c40 34 60 55 52 55 -4 0 -13 -5 -20 -12 -9 -9
-12 -9 -12 -1 0 7 5 15 11 18 5 4 14 18 19 31 5 13 14 24 20 24 6 0 8 -4 5
-10 -13 -21 13 -9 31 15 10 14 24 25 30 25 7 0 14 9 17 19 2 10 22 27 42 37
21 10 34 19 28 21 -6 2 -31 -8 -57 -22 -25 -14 -46 -22 -46 -17 0 16 68 62 82
57 8 -3 21 7 31 25 10 16 24 30 32 30 17 0 34 30 28 48 -3 7 -1 12 4 11 21 -3
51 14 46 27 -3 8 0 14 6 14 6 0 11 6 11 14 0 8 9 18 20 21 11 3 20 10 20 15 0
5 14 23 31 40 17 17 29 34 25 37 -3 3 9 25 27 47 96 119 172 248 202 343 16
48 16 56 1 100 -32 94 -82 143 -169 164 -29 6 -61 18 -72 25 -36 22 -181 28
-274 10 -109 -21 -148 -21 -159 2 -12 23 -9 62 6 90 7 12 11 26 8 30 -5 9 15
31 69 77 21 18 23 23 8 16 -36 -18 -36 -13 0 24 19 19 39 35 46 35 6 0 11 6
11 13 0 15 31 47 45 47 4 0 2 -7 -5 -15 -15 -18 -10 -19 27 -4 25 10 26 12 9
18 -17 7 -16 10 12 30 32 23 42 43 20 39 -7 -2 -12 2 -11 9 3 14 -24 25 -32
13 -4 -6 -17 -10 -30 -10 -13 0 -27 -4 -30 -10 -3 -5 -13 -10 -22 -10 -13 0
-12 5 7 25 16 17 27 22 35 15 9 -7 16 -6 25 5 19 23 58 19 62 -5 3 -19 5 -19
39 9 20 17 39 27 43 24 3 -3 6 -1 6 6 0 8 -11 10 -37 5 -33 -6 -36 -5 -26 8 8
9 24 13 43 10 23 -3 30 0 30 12 0 9 5 16 10 16 16 0 35 16 127 108 78 78 83
85 83 125 -1 32 -7 49 -30 75 -34 37 -57 39 -115 12z m-335 -234 c0 -3 -4 -8
-10 -11 -5 -3 -10 -1 -10 4 0 6 5 11 10 11 6 0 10 -2 10 -4z m135 -116 c3 -5
1 -10 -4 -10 -6 0 -11 5 -11 10 0 6 2 10 4 10 3 0 8 -4 11 -10z m-7 -107 c-2
-9 -18 -23 -36 -30 l-33 -13 22 30 c25 32 52 40 47 13z m-328 -85 c-12 -18
-28 -48 -36 -67 -8 -18 -17 -31 -20 -28 -5 5 14 59 24 67 4 3 15 17 25 33 10
15 20 27 23 27 3 0 -4 -15 -16 -32z m-66 -140 c-4 -13 -11 -39 -15 -58 -7 -29
-8 -27 -4 13 5 47 11 67 21 67 3 0 2 -10 -2 -22z m426 -1048 c-20 -13 -33 -13
-25 0 3 6 14 10 23 10 15 0 15 -2 2 -10z m-253 -256 c-3 -3 -12 -4 -19 -1 -8
3 -5 6 6 6 11 1 17 -2 13 -5z m-287 -314 c0 -5 -5 -10 -11 -10 -5 0 -7 5 -4
10 3 6 8 10 11 10 2 0 4 -4 4 -10z m-105 -40 c-3 -5 -10 -10 -16 -10 -5 0 -9
5 -9 10 0 6 7 10 16 10 8 0 12 -4 9 -10z"/>
<path d="M2205 2510 c-3 -5 -2 -10 4 -10 5 0 13 5 16 10 3 6 2 10 -4 10 -5 0
-13 -4 -16 -10z"/>
<path d="M1655 2249 c-4 -6 -5 -12 -2 -15 2 -3 7 2 10 11 7 17 1 20 -8 4z"/>
<path d="M2467 2249 c7 -7 15 -10 18 -7 3 3 -2 9 -12 12 -14 6 -15 5 -6 -5z"/>
<path d="M1283 1924 c-3 -8 -1 -20 6 -27 6 -6 11 -20 11 -31 0 -30 7 -15 14
32 5 34 3 42 -9 42 -9 0 -18 -7 -22 -16z"/>
<path d="M1320 1824 c0 -14 4 -23 10 -19 6 3 10 15 10 26 0 10 -4 19 -10 19
-5 0 -10 -12 -10 -26z"/>
<path d="M1360 1799 c0 -11 -4 -18 -9 -14 -5 3 -12 1 -16 -5 -4 -6 6 -10 25
-10 27 0 29 2 21 19 -6 10 -7 21 -4 25 3 3 1 6 -5 6 -7 0 -12 -9 -12 -21z"/>
<path d="M1346 1751 c-4 -7 -5 -15 -2 -18 9 -9 19 4 14 18 -4 11 -6 11 -12 0z"/>
<path d="M2169 689 c-25 -27 -44 -59 -33 -59 14 0 84 54 84 65 0 24 -25 21
-51 -6z"/>
<path d="M2066 635 c-10 -7 -15 -18 -11 -24 9 -15 45 5 45 24 0 19 -10 18 -34
0z"/>
<path d="M2085 581 c-3 -5 -1 -12 4 -15 5 -3 11 1 15 9 6 16 -9 21 -19 6z"/>
</g>
</svg>
