<svg class="chicago-map" version="1.1" viewBox="-221.5 312.5 492.2 601">
    <g stroke-width="1" stroke="#000000" fill="none">
        <path class="path" d="M140.6,761.9l-0.4-5.5l-2.2-1.3l-0.1,1.1l-1.4-0.3l-1.2,0.3
l-0.8-0.2l-0.1-1.6l0.1-1.1v-1.3l-0.4-1.6v-1.1l0.2-1.7H134V745h0.8h0.9h0.2l1.2-0.2h1.4l1.5-0.2l1.4,0.2h1.4l1.3-0.2h1.4l1.4-0.2
h1.5h0.9l0.6,0.2l0.8-0.2h0.6l1.8,0.2l2-0.2h1.9l1.9-0.2l2,0.2l1.8-0.2l1.5-0.2l1.4-0.2l1.4,0.2l1.4-0.2h1.4l1.5,0.2l1.3-0.2
l1.2-0.2h1.8l1.3,0.2l1.4-0.2l1.5-0.2h1.5h1.3l0.9,0.2l-0.1,1.3l0.2,0.2l-0.6,4.3l-0.1,1.4l0.1,1.6L183,754l0.1,1.4v4.1l3.1,7.3"/>
        <path class="path" d="M80.3,318.9h2.1l1.4-0.2h1.4h1.5l0.2,0.2l1.3,0.3l0.5,0.2h0.8
h0.7h3l0.8-0.2l-2.4-2.1l-2.3-2.5l-1-1.5l0.4,0h0.5h7.4l6.1-0.2l0.7,0.2l0.6,1.6l0.6,1l0.5,3.3h-0.5l0.9,1.6v1.7l0.6,1.6l0.7,1.6
l0.5,1.8l0.5,1.7l0,0.2l0.2,1.3l1,1.4l1.9,2.1l-0.5,0.2l0.7,0.6l3,4.6l-1.6,0.3l-0.1,1l0.1,1.3v0.5l0.1,1l0.4,1.8l0.5,1.6l0.1,1.1
l-0.1,0.5l0.6,1.6l0.1,0.6l0.5,0.6l0.5,1.3"/>
        <path id="_x32__x5F_3" class="path" d="M50.8,331l0.8,0.1l0,0v-1.4l0.1-1.6l0.1-1.4v-1.4v-1.4v-1.4l0.1-1.4
l-0.1-1.4l2.6-0.3l3-0.2h2.7l2.6-0.2l2.7,0.2l1.1,0.1l1.8-0.2h1.9l3.4-0.1l1.5,0l0.5,0l1,0h1.5l2,0.2l0.2,2.2l0.2,2.5l0.2,2.1
l0.5,1.6l0.7,2.9l0.5,1.7l0.5,1.6l0.6,2.2l0.7,2.1l0.1,0.5l0.5,1.4l0.8,1.9l0.5,1.4l1.8,6.2l1.4,3.8l1.5,0.2h0.5l0.4-0.2l0,1.4
l0,1.9l0,1.9l0.2,4.1l0.1,1.6l-0.4,0.1l-0.4,0.1l-1.9,0l-1.7,0l-1.8,0l-8.7,0.2l-1.3,0.2l-1.4-0.2l-0.1,3.2v2.9l0.1,3l0.2,2.9
l-1.4,0.2l-1.4-0.2l-1.4,0.2h-1.4h-1.2h-1.7h-1.5h-1.4h-1.4l-1.4-0.2l-1.5,0.2h-1.4l-1.2,0.2l-0.6,0.2l-1.5-0.2l-2.7-11.6
l-0.5-2.1l-1.5-8.7l1.2-0.1l0.2-3.2L50.8,333L50.8,331z"/>
        <path id="_x33__x5F_3_2_" class="path" d="M93.2,410.6l-0.1-2.9l-0.1-3v-2.9v-2.9l-0.4-4.8v-2.5v-1.4
l-0.1-1.4v-1.6h2.8l2.7-0.2h1.5h4.2h1.4l1.4-0.2h1.4h1.5l1.3-0.2h1.1h1.6l1.8,0l0,0l3.4-0.2h0.9l0.8-0.2l0.8-0.3l0.9-0.3l2.8-1.1
l0.5,1.9l0.6,6.5l1.8,3.7l0.5,0.8l0.4,0.6l1.4,1.4l2.2,2.4l2.1,1l3.5,1.1l4.2,0.3l0.5,3.4l0.1,0.6l-1.8,1.1l-3.7,3.5l-1.9,0.8
l-1.8-0.3l-2-1v-1.1l0.8-0.3l1.2,0.8l1.4,0.2l1.3-0.6l1.6-1.7l-0.1-1.1l-1.1-0.2l-4.6,0.6l-1.9,0.8v1.6l0.6,0.6l-0.2,3.3l1.2,6.2"/>
        <path id="_x34__x5F_3_1_" class="path" d="M68.6,411.1l-0.5-1.4l-0.5-1.6l-1.5-1.9l-0.2-0.6l-1.3-1.6
l-0.7-0.9l-0.4-0.3l-0.4-0.5l-0.8-1l-0.9-1.8l-3.1-5.6l-0.8-2.2l-0.5-3l-2.8-12.2"/>
        <path id="_x35__x5F_3_1_" class="path" d="M82.9,457.3l-0.9-1.7l-2.5-0.8l-2.8-3.6l-2.7-1.4l-0.6-1.6
l-2.1-2.4l-3.2-5.2l-1.2-6l-0.6-6l2.6-5.7l0.1-2.9l0-2.9l0-1.6l-0.1-1.4l-0.1-1.4l-0.1-1.4l1.5-0.2l1.4,0.2h0.6h0.7l1.5-0.2
l1.4-0.2l1.3,0.2h1.5h1.3h1.5h1.9l0.9-0.2h0.9l1.9,0l0,0h1.7h1.9l0.9-0.2h0.7h0.4h0.5"/>
        <path id="_x36__x5F_3_2_" class="path" d="M93.9,457.1l0.2-0.9l-0.2-4.6h0.5l-0.2-1.7v-1.4l-0.2-1.6v-0.9
v-0.5l-0.1-1.4l-0.1-1.3l0.1-1.7l0.1-0.8l-0.2-1.1v-1v-1.3l-0.1-2.4l0.1-0.8V431l-0.1-2.9l-0.1-3l-0.1-2.9v-2.9l-0.1-2.9v-3v-2.9
h1.8h1.8h1.9l1.9-0.2l2.1-0.2l0.5,1.4l0.4,1.6l0.4,1.4l0.5,1.3l0.4,0.9l0.8,1.6l1.4,3l3.3,0.2h3.2h0.8l1.8-0.2l2.8,0.2l1.8-0.2
l1.2-0.2l2.1,0.2h1.4l1.6-0.2l0.5-0.2l0.7,0.2l4,0.2l0.4,1.4l0.7,2.5l1.7,4.6l0.6,1.8l5.9,8.7l-1.3,0.5l-0.7-1.4l-0.9,0.5
l-0.8-0.2l-1.7-4.6l-2.7-0.6l-1.2-1.4l-0.2-0.3l-1.2-0.8l0.4,0.8l0.5,0.5l1.7,1.8l-0.4,1.9l0.6,1.4l1.3,1.4l0.4,2.2l0.7,1.3
l0.7,1.1l0.6,0.6l1.7-0.8l0.5-2.2h0.5h0.5l0.2,2.2l2,5.6l0.9,2.9l1.2,2.2l-0.3,0.6l-0.1,0.2l-0.6,0.5"/>
        <path id="_x37__x5F_3" class="path" d="M116.8,456.7h0.9l0.5-0.2h1.4h1.5l1.4-0.2l0,0h1.5h1.2l2-0.2
l1.7,0.2l0.9-0.2h0.4h1.4l2.2-0.2h1.8l1.9,0.2l2.2-0.2l1.6-0.2l0.2,0.5l0.9,0.2l0.8-0.2l0.5,0.8l-0.2,4.3l0.2,1.4l1.6,3.5
l1.7,12.5l9.2,7l-5,4.3l-1.6,0.2l-0.6,0.2l-0.7-0.3l-0.8,0.2l-1.4,0.2h-1.5l-1.8,0.2h-1.1l-0.7,0.2h-1.6h-1.3H137l-1.2,0.2h-1.1
h-1.4h-0.6h-0.9h-0.6l-0.5,0.5h-1.4h-0.2h-0.8l-1.3-0.3h-0.7H126h-0.7l-0.5-0.2l-0.4,0.2h-1.1l-1.4-0.2l-1.9,0.2l-2.4,0.2h-1.1
l-1.4,0.3l-1.7,0.2l-2.5-7l-5.4-0.8l-1.2-2.4l-0.7-2.1l-0.5-0.2l-0.9-1.4l-1-1.7l-1.4-2.2l-0.5-0.6l-2.2-0.3l-1.2-0.3l-2-1.7
l-1.5-1.3l-0.5-1.3l0.4-1.4l-0.6-1.4l-2.2-1.4l-1.3-0.5l-1.8-0.6l-0.1-0.3l-0.3-0.6l-1.4-2.8l-1.9-2.2l2.2-0.2h2.1l0.9,0.2
l2.8-0.2h0.7h0.5h1.6l3-0.2h1.5h1.4h1.3l1.5-0.2h1.4h1.4h1.4h1.4h1.3l1.7-0.2h2.7h0.6h0.7L116.8,456.7L116.8,456.7z"/>
        <path id="_x38__x5F_3_2_" class="path" d="M151.4,490.1l-0.8,2.4l1,6.2l0.5,3l0.7,1.8l0.7,1.7l3.7,0.8
l1.2,2.2l0.5,0.2l2.6,5.1l2.5,5.1l0.3,0.7l1.7-0.3l2.4-4.4l2.7-0.2h1.2l0.4-0.2l0.2,0.3l0.6-0.2l0.1-0.2l0.7,0.2h3.3l0.1,4.8
l-5.3,0.2l-3.4,0.1v1.6l13.1-0.2l0.1,1.3h-2.7l-0.1,0.3l-10,0.5v2.5h-2.1l-0.4-2.1l-3.1,0.2h-4.2l-0.1,0.2h-2.8l-0.1,0.5l7.3-0.2
h1.8l0.1,1v0.8l-1.8,1.1l-7.6-0.5l-4.6-0.3l-2.8,1.4l-1.5,0.5l-1.7,0.5h-1.9l-1.8-0.2l-1.8,0.2h-2.1l-2.2,2.1l-2-4.9l-1.8-3.2
l-1.4-2.1l-2.2-3l-0.2-3.2l-0.6-1.6l-3.7-0.9l-4-2.5l-1.9-0.8l-3.1-1.1l-2.5-4.4l-0.6-5.6l0.8-2.7l0.8-2.7"/>
        <path id="_x39__x5F_3" class="path" d="M-75.1,320.1l1.5-0.2h1.4h1.5h1.4h1.5l1.5-0.3h1.5l1.3,0.2v1.6v1.1
l-0.1,2.9l0.1,2.9v3l-0.2,1.4v2.7l-0.1,1.3l0.4,1.8l-0.1,1.3l-0.1,1.6l0.1,1.3l-0.2,3l0.2,2.9l-0.1,2.1l0.1,1.3l-0.1,1.7v1
l0.1,1.6l0.1,0.8l-0.1,0.3h-0.7l-3.5-0.2l0.1-1.3v-1.3h-1.5h-2.5l-3.7,0.2h-2.6l-2,0.2l-1.2,0l-0.2-1.2l-0.1-1.7v-0.6v-2.4
l0.1-0.8l-0.1-0.5v-1.4l0.1-0.8l-0.1-0.6l0.2-1.3l0.3-0.2l-0.3-0.8l0.1-2.2l0.1-2.1v-0.6l-0.1-5.9l0.9,0.1l1.2,0.1l0.7,0l0-0.5
l-0.6-0.1v-0.5v-1.4v-1.4v-1.4l-0.1-0.8h-0.7l-0.9-0.5l-0.4-2.7v-2.2h0.8h2.2l1.4,0.2L-75.1,320.1z"/>
        <path id="_x31_0_x5F_3_x5F_0" class="path" d="M-83.5,376.5l-2.1,0l0.1,1.7l-3.3,0v-2.7l-2.4,0l-1.2,0
l-1,0l-1.2,0l0,0.6l-0.7,0.2l0,1.1H-97l-0.1,2.2l0.4,0l0.6-0.2l0,0.7l-0.5,0l-0.5,0v0.6l0.9,0l1.4,0l1,0l3.4,0l0.9,0l0,0.3h0.3
l0,1.3l0.5,0v0.5l-0.5,0l0,0.5l0,0.4l-1.1,0h-0.6v0.8v1h0.4l0.1,0.5h-2.7l-2.2,0.2v0.8v0.5l2.7,0.1l5,0.1l1,0l2.1,0.1l0.1-0.5
l0-0.4l0-0.3l0.2-1l0-0.6l0.1-0.5l0-0.7l0-0.6l0-1l0.1-1.7l0.1-1.3l0.1-1.3L-83.5,376.5z"/>
        <path id="_x31_1_x5F_3_2_" class="path" d="M-39.9,400l-1.4-0.2v-0.6"/>
        <path id="_x31_2_x5F_3" class="path" d="M-44.2,348.7l3.9-2.7l5-2.7l0.6-0.6l-0.1-0.5l-0.6-1.3l-1.9-2.9
l-1.2-1.4l-0.4-0.5l-0.4-0.3l-0.6-1.3l-0.8-0.6l-1.9-3.3l2.5,0.2l3.1-0.2h1.2l1.7,0.2h1.5h0.8l1.1,0.5l0.2-4.9l-0.1-0.8l2.4,0.2
l0.1,5.4l3.3,0.2l0.6-0.3l1.5,3.8l0.6,1.4l0.5,1.4l0.7,1.7l0.2,0.4l0.7,1.8l0.8,0.8l1.7,0.6l2.1,1.6l0.6-0.8l-1.6-1v-6.4l5.3-0.2
h0.8l-0.1,1v0.8v1.4l-0.1,1.4l-0.1,1.4v1.4v1.7l-0.1,1.8l1.9,1.1l1.1,0.8l1.4,1l1.2,0.6l1.2,0.6l1.2,0.8l1.3,0.8l1.3,1.1h1.5h1.5
h0.9l1.3,0.5h0.9l1.3-0.2l1.4-0.3h1.4h1.4h1.3h1.4h1.4h0.9h0.4h1.4l1.9,0.1l1.3,0.1l1.3-0.2h1.5l1.4,0.2l1.7-0.2h1.1h2h1.2l-1.9,3
l-1,2.1l-0.4,0.6l-1.1,1.7l-0.5,1.1l-1.6,2.9h-0.7l-0.6,0.2l-1.5,2.7l-2.8,1.9l-0.6,0.3l-1.3,1l-0.1,2.9l0.2,2.9H16l-1.4,0.2
l-1.3-0.2h-1.4h-1.3H8.3H7.1l-1.3-1.4l-0.1,1.8l0.1,3.2v1l0.1,1.6v1.6v1.1l0.1,3.2l0.1,3.8v0.5v1.6v1.3l0.1,1.4v1.4l0.2,1.7
L6,401.1L5.3,401l-1.5-0.3H3.5H3.1H2l-1.4,0.2v-1.6L0.5,398v-1.6l-0.1-1.4v-1.4h-2.8l-0.1-1.4v-1.4l0.1-1.4l-0.2-2.9v-0.6l0.5,0.3
l-1.6-4.3l-1.4-3.8l-0.5-0.8l-1.2-3.7l-2-4.4l-1.1,0.5l-0.8-1.3l0.7-0.2l-0.5-2.5l-0.8-1v1.3l-1.7,0.8l-2.4-1.3l-2.4,2.2l-3.1-0.5
l-0.9-1.1v-0.6l0.7-1.7l-2-0.8l-1.1-2.7l2.5-2.2l-0.4-2.7h-4.2l-1.5-1l-1.7,0.3l-1.3,0.5l-0.9-1l-2.2-9l-2,4.4l-1.5-0.2l-2.8,1
l-1.4,0.2L-44.2,348.7z"/>
        <path id="_x31_3_x5F_3_2_" class="path" d="M57.5,391.8l-2.2-1.3l-1.3-0.3l-1.9-0.2l-1.3,0.4l-0.1,0
l-1.4,0.6l-0.9,1.9l-1.9,1H45l-1.8-0.2l-1.1-0.8l-1.3-1l-1-0.5l-0.8-0.4l-2.6-0.8l-1.1-0.3l-0.9-1.4l-1.8-0.8l-2,0.8l-1.3,0.2v1
v1.3v0.6v0.6l0.1,2.2h-1.4h-1.5h-1.4v-0.8l-0.1-1.9h-1.4v-3h-1.4l-1.5,0.2l-1.4-0.2h-1.4h-1.6h-1.5l-1.4,0.2H12H9.6l-0.2,0
l-1.7,0.1L7,389.1H6.5l-0.5,0.2"/>
        <path id="_x31_3_x5F_3_1_" class="path" d="M31.5,354.1h1.2H33h1h1.4l1.6,0l1.4,0h1.4h0.6l0.7,0l1.4,0
l1.5,0l1.4-0.1l1.8,0.1l1.3,0H49h0.5"/>
        <path id="_x31_4_x5F_3_2_" class="path" d="M68.6,411.1l-2.9-0.2l-1.4,0.3h-1.4h-1.4h-1.5l-1.3,0.2H57
h-1.4h-1.4h-1.4h-1.4h-1.5h-1.4h-1.5h-1.4h-1.4h-1.4l-1.3,0.2h-1.5h-1.5h-1.4h-1.3l-1.5,0.2h-1.5h-1.4l-1.4,0.2h-1.3h-0.8
l-2.7-2.4l-2-1.8l-1.4-1.6l-1.1-0.8l-1.4-1.3l-0.7-0.6l-0.4-0.6l-0.1-2.4h-1.3l-1.2,0.2h-0.7l-0.8,0.2l-1.8-0.2h-0.9h-0.5H9.2H8.8
H7.7L7,400.5L6.5,401"/>
        <path id="_x31_5_x5F_3" class="path" d="M-29.9,399.7h1.5l1.4,0.2l3.7-0.2h3.2l3.1-0.2v1.6l1.4-0.2
l1.6,0.2h1.4l1.3,0.2l1.4,0.2L-9,401h1.6l1.8,0.3l0.4-0.1l0.5-0.1L-4,401l0.9-0.1l0.9,0l1.8-0.2l1.1,0.2l1.4-0.2h1.1h0.4h0.4
l1.5,0.3l0.8,0.2l0.5-0.2l-0.2,5.6l0.4,1.7l0,0.5l0,0.7l0,0.3L6.5,410l1.9,1.3l1.8,1.3H9.5H7.6l2.7,6.5l1.5,4l0.7,0.8v0.8v4.1
l0.1,3.6l-0.1,1.3l0,0.3l0.1,1.4l0.4,2.9l-0.2,2.9l-0.6,0.2l-0.2,0.2v2.7h0.8v3l-1.2-0.2l-0.7,0.2h-0.7L9.2,447l-0.5,0.2L7.4,447
l-3,0.3H1.6h-2.8h-3h-3H-10l-1.4,0.2l-1.7-0.2l-1.3,0.2l-1.4-0.2l-1.5,0.2h-1.4l-1.5,0.2h-1.3H-23h-1.5h-1.4h-1.4v-1.4v-1.4v-1.4
l-0.1-1.4v-1.4l-0.1-1.6l-0.1-1.4V436v-1.4v-1.4l-0.1-1.3l-0.1-1.6l0.1-1.6l-0.1-1.4v-1.4l-0.1-1.4h-1.4l-1.4,0.2h-1.4h-1.5h-1.1
h-1.2h-0.7l-2.6,0.2l-0.1-1.7l-0.1-4.1l-0.2-5.6v-3l-0.2-1.9l0-0.2l0.3-2v-3l-0.1-1.4V400l1.4-0.2h1.3h1.5h1.4h1.6h1.3
L-29.9,399.7z"/>
        <path id="_x31_7_x5F_3_3_" class="path" d="M-99,414.3l5-0.2l0,0.2l0.8,5.7l0.2,2.9v2.7h1.3l1.5,0.2h1.5
l1.3-0.2l5-0.2h0.8l1.5-0.2l1.4,0.2h1.4l1.4-0.2h1.4l1.4-0.2h1.5h1.4h1.5h1.4h1.5l1.4-0.2l0.1-1.8l7-4.4l1.3-1l1.5-1l1.3-0.8
l1.4-1.1l1.8-1l1.1-0.8l2.7-0.2l1.7,0.2h1.6l1.4,0.2h1.3"/>
        <path id="_x31_7_x5F_3_2_" class="path" d="M-27.3,447.6h-3l-2.7,0.2h-3l-2.8,0.2l-1.5-0.2l-1.5,0.2h-1.3
h-1.1h-0.4H-46h-1.4l-1.4,0.2h-1.7h-1.3h-1.5h-1.5l-2,0.2h-1.8h-0.5h-1.1h-0.4h-1.2H-62l-0.6,0.1l-0.7,0.1v2.4l0.1,3.2l-1.5-0.2
h-1.4h-1.4L-69,454l-1.5-0.2l-1.5,0.2h-1.4l-1.4,0.2v-2.9l-0.1-2.9h-1.4l-1.4,0.2h-1.5h-1.4l-1.5,0.2h-1.4h-1.3h-1.4l-1.4,0.2
l-1.5-0.2l-1.5,0.2h-1.4h-1.4h-1.5l-1.3-0.2l0,0"/>
        <path id="_x31_8_x5F_3_2_" class="path" d="M-62.8,471.3l-0.1-1.6l-0.1-1.1V467v-1.3l-0.1-1.1v-1.9v-0.8
l0.1-2.1l-0.1-0.2V457v-0.3l-0.1-2.7"/>
        <path id="_x31_9_x5F_3_3_" class="path" d="M-42.5,481.4l-1.2-1.9l-0.5-8.7l-0.2-11.3l-0.1-2.9v-2.9V451
l-0.2-3h0.4"/>
        <path id="_x31_9_x5F_3_2_" class="path" d="M12.8,447.2L13,450l0.1,2.7v3.2l0.1,2.7v1.6l0.1,1.6v1.7
l0.1,1.9l-0.1,1.6l0.1,1.6l-0.1,1.4l0.1,2.7v1.1l0.1,1.9l-0.1,1.6l0.2,1.3l0.1,1.6v1.1v1.3v0.3v1.8l0.2,2.1"/>
        <path id="_x32_0_x5F_3_1_" class="path" d="M25.4,458.1l0.8,1.6l0.4,1.3l1,3.2l1.7,4.3l0.7,1.4l0.7,0.2
l0.4,1.6l0.2,0.8l-0.2,0.5h-0.4l0.5,1.1l-0.2,1.4l0.2,1.4l-0.2,1.9l2.2-0.3l0.7,1.5l0.4,0.8l-0.2,0.5l0.2,2.7h1.1l0.4,1.1l0.8,1.9
"/>
        <path id="_x32_0_x5F_3_2_" class="path" d="M12.8,447.2l1.7-0.2h1.6l1.4-0.2H19h1.1l0.8,0.3"/>
        <path id="_x32_1_x5F_3_1_" class="path" d="M76.6,451.1v3.3l0.1,1.4v1.4l-1.5,0.2h-1.4h-1.4H71l-1.4,0.2
l-0.2,0.2l-0.5,0.2h-1.3l-1.1-0.5l-1.2,0.2h-1.5l-1.3,0.2l-1.5-0.2h-1.4h-1.4h-1.4l-1.5,0.2l-1.3,0.3l-1.5-0.3h-1.4h-1.5h-1.3
l-3,0.2h-1.4H42h-1.3l-1.3,0.2h-1.5h-1.3l-1.4,0.2l-1.5-0.2l-1.3,0.2h-1.5H28l-2.6-0.2l-0.7-2.5l-1.3-2.9l-1.2-3l-0.8-1.1
l-0.5-1.4l0.7-0.2l0.8-0.3h1.2h1.2h2.8l2.8-0.2l0.1-1.3l-0.1-1.3l0.1-0.6l-0.1-2.5l-0.1-0.6l-0.1-1.3l0.1-1v-0.5l-0.1-1.1
l-0.1-1.3l1.8-0.2l1.3,0.2l1.3-0.2h1.7l2.7-0.2h0.2h0.6l0.5,0.2h0.7l0.9-0.3l1.4,0.2h1.4l1.5-0.2l1.3,0.2l1.7-0.2h1.8h1.2l1.4-0.2
h1.3h1.4h1.4H59l0.9-0.1l0.5-0.1h1.4h1.5h1.3l2.1,0.2"/>
        <path id="_x32_3_x5F_3_2_" class="path" d="M14.1,486.6l0.4,0l0.9,0.1L17,487l3.1,0.2l1.2,0.2l1.4-0.3h1.6
l1.4,0.2h1.3h1.5l1.5-0.2l1.3-0.2h1.4h1.3l2.4,0.2l0.7-0.2h1.3l1.4-0.2l1.4,0.2l1.4-0.2l0.2,0.2l1.5,0.2l2.1-0.1l0.4,0l1.5,0.2
h1.9l1.9-0.2h1.9l0.1-0.2l2-0.2l1.5-0.2l1.9,0.5h0.5l0.1,0.3v2.5l-0.2,2.7h-0.5h-1.2L57,492l-1.4,0.3l-1.4,0.2v1.3v1.6l-0.1,1.4
l0.1,1.4l0.1,1.4v1.4l-0.1,1.4l0.2,1.4v1.4l0.1,1.4l-0.1,1.4l0.1,1.4h4.2h0.8H60l0.2,1.9l-0.4,2.4v1.6h0.7l2-0.2h0.8h1.4h1.6v1.4
l-0.1,0.6l3.1,1.6l1.5,0.9l1.3,0.5v1.1l0.1,1.8l0,0.4v1.3l0.2,1.9v0.6"/>
        <path id="_x32_4_x5F_3_2_" class="path" d="M60.2,486.8v-0.3h0.5h1.5h1.4h1.2l1.1-0.2l1.6,0.2H69h1.4
l1.4-0.2h1.4h1.5H76h1.6h2.7h1.1l0.8-0.2l0.2,0.5l0.4,0.3l0.5,0.3v-0.8l-0.1-1l2.7-0.5l3.1-0.2l-0.1,0.9l1.4,0.2h1.4l1.5-0.2h1.3
l0,0l0,0h1.5h1.4h1.4l1.5-0.2h0.6h0.7l0.9-0.5l0.7-0.3l2.2-1"/>
        <path id="_x32_5_x5F_3" class="path" d="M14.8,527.9v1.4l0.1,0.9v0.8l-0.1,0.6l0.1,0.6v0.8h0.4l-0.4,2.1
v1.3v2.9l0.4,1.4l0.1,1.4v1.7v1.6l0.9-0.2l0.1,1.6l-0.2,1.1l-0.1,1.4v1.4h-0.9l0.1,1.4v0.9v0.6v1.3l0.1,1.4l-0.1,1.1l-0.1,0.9
l0.4,3.8l-2.8,0.2l-2.8-0.2l-1.4,0.2L7,562.7l-1.5-0.2l-1.4,0.2H2.5H1.1h-1.3h-1.5l-5.8,0.2h-3.1h-1.2h-1.5l-1.4,0.2h-1.5h-1.3
h-1.5h-1.5H-22l-1.4,0.2l-1.5,0.2l0.1-3l-0.1-3l-0.1-1.9V555v-0.8l-0.1-2.4v-3.2l0-0.6l0-2.2v-1.9l-0.1-0.9l-0.1-2.9v-3.2v-3.2
l-0.2-2.1l0-0.4l-0.1-2.2l0-0.7l0-0.4v-0.5l-0.1-1.3l0-0.4l0-1.4l0-0.7v-0.7l-0.1-1.4l0-1.6l-0.1-0.7l0-0.8l0-1.6v-1.1l0-1.4
l-0.1-1.4l-0.1-1.8v-2.9v-3v-2.7l-0.1-0.3l0.1-2.7l-0.1-0.5l-0.1-2.3l-0.1-2.9h-0.9l-0.6,0l-1-0.1l-0.5,0.2l-0.9,0.2h-0.7h-0.6
h-0.8h-1.1h-0.6h-1.3h-1.8h-0.5h-1.1h-0.7l-0.7,0.2h-1.2l-0.6,0.2l-1.3-0.2l-0.5,0.2h-1.1h-0.5l-0.9-0.2l-0.5,0.2h-0.9l-0.5-0.2
l-0.9,0.2l-0.5,0.2l-1.1-0.3l-0.8,0.3l-0.6-0.2h-1.2h-0.5h-1.3l-0.8,0.2l-1.1-0.3l-0.9,0.2l-0.7,0.2l-1.3,0.2h-0.6l-1.9-0.2l0.1-3
l-0.1-2.8l-0.1-2.9l-0.1-2.9V480l0.1-3.2l-0.2-1.7l-0.1-1.6l0.1-0.3l-0.1-1.6l0.1-0.3l2.1,1.1l1.4,0.5l0.7,0.5l2.4,0.9l0.8,0.3
l1.2,0.6l2.4,1.1l2.2,1.1l7.1,4l4.5,1.1h2.8l8.7-0.2l6.1,0.2l5.6-0.2h1.8l4,0.4l1.8,0.2l1.9,0.5l2.1,0.6l3.7,0.6l3.9-0.2l1.1,0.2
l3,0.6l0.8,0.5l4.8,0.8l-0.2,2.5l-0.1,3.5v2.1l0.1,10v4.4l0.4,1.3l-0.1,1.4l0.1,2.9l0.1,1.4l0.3,1l0.4,3.5l-0.1,2.4v0.3
L14.8,527.9L14.8,527.9L14.8,527.9z"/>
        <path id="_x32_6_x5F_3_3_" class="path" d="M14.8,527.9l3-0.2l3,0.2h5.8h1.8l3.9-0.3l1.3,0.3h0.4h0.9
l1.3-1l1.6,0.5"/>
        <path id="_x32_6_x5F_3_2_" class="path" d="M38.5,556.2v1.3v0.9l-3-0.2h-2.7l0.1-0.9h-3.1h-2.8l-2.9,0.2
l-0.1-1.6v-1.6l-2.8,1.1l-1.5,0.6l-1.2,0.5l-0.4,0.2l-1.4,0.4l-1.4,0.5"/>
        <path id="_x32_7_x5F_3_2_" class="path" d="M73,557.2l-2.7,0.3l-1.7-0.2l-1.3,0.2h-2.8l-3.1-0.2l-2.8,0.2
h-2.8l0.1-1.4h-3.1H50l-2.9,0.2h-2.8h-3h-1.6H39h-0.5v-1.4v-1.4l-0.1-1.4v-1.4l0.1-0.8l-0.1-0.8l-0.2-0.9l-0.1-0.5l0.1-0.6v-0.6
v-1.4l-0.2-1.1V542V541l-0.1-0.6V539v-1.9l-0.1-1.6v-1.7V532l-0.1-2.7v-1.1v-0.8h1.4l1.4,0.2l1.3-0.2h1.1l1.9-0.2H45h1.3h3
l2.7-0.2h1.5H55h1.5l1.3,0.2h2.4h0.7l2.7-0.2h2.9l2.4,0.6l3.7-0.2h4.5"/>
        <path id="_x32_8_x5F_3_1_" class="path" d="M135.9,530.4l-0.1,2.5l-0.2,2.1l-0.2,2.1v2.1l0.1,1.9l0.5,2.1
l0.5,1.9l0.9,2.1l0.4,0.9l0.4,0.9l0.9,4.1l0.5,3.5l0.5,4.1v9.5v1.7l-0.9-0.2h-0.8l-0.6,0.2h-0.5H136l-1.4-0.2l-1.2,0.2h-1.1h-1.2
l-1.2,0.2H129h-0.5h-0.2h-0.2h-0.2h-0.2h-2.1h-1.2l-1.3,0.2h-1.2h-0.6h-0.8l0,0l-1.5,0.2l-1.4-0.2l-3.7,0.2l-1.3,0.2h-1.4
l-0.8,0.2h-2l-2.9-0.2h-2.7l-1.1,0.2h-2h-0.8l-2.1,0.2l-3,0.2l-1.2-0.2l-1.8,0.2l-2.7,0.2l-3.2-0.2h-1.9l-3.3,0.5h-3l0.1-0.3
l-0.5-3l-0.4-3.8l-2.4-4.4H74l-0.5-0.9l-0.4-2.4l-0.2-1.4v-1.3l-0.1-1.6l-0.1-1.4v-1.4v-1.4V549l-0.1-0.6l0-0.3l0.1-0.6v-0.5
l-0.2-0.5l0.1-0.9v-1.3v-1.6v-1.4v-1.4v-1.4l-1.2,0.2l0.2-1.6v-1.4l-0.1-1.1v-1.3h0.9v-2.5l-0.1-0.8l0.6-1.1l0.9-0.6l3.2-0.5
l1.4-0.5l-0.1-0.8l1.3,0.2l1.4-0.2h1.4l1.4-0.2l3,0.2l3.2,0.2l1.5-0.3l1.4,0.3l2.7-0.2L97,526h1.3h0.9l1.2,0.2l1.1,0.2l2-0.2
l1.1-0.3h1.3h1.2l0.7,0.2l1.2-0.2l2.2,0.3l1.5-0.3l0.6-0.2l1.3,0.2h1.4l1.3-0.2l1.4,0.2h1.4h1.4l1.3-0.2l0.8,0.5h0.6h0.2h1.9h0.4
l1.4-0.5l1.7-0.2h1.4l0.6,0.2h1.3l0.7-0.2"/>
        <path id="_x32_9_x5F_3_2_" class="path" d="M16.6,595.1l-0.1-1.1l-0.2-4.8l-0.1-2.2v-1.7l-0.1-0.9l0-0.3
l-0.1-1.4l-0.1-1.4v-1.3l-0.1-5.9l-0.1-2.1l0.1-0.8v-2.5v-1.9l0.2-0.3l-0.2-1.1l-0.2-1.5v-1v-0.5"/>
        <path id="_x33_0_x5F_3" class="path" d="M63.4,579.2L63.4,579.2l4.2-0.2v0.5l1.5-0.3L73,578l3.4-1v3l0,0.3
l0.1,0.6v0.8l0.1,1.4l0.1,1.3v2.7v3v1.4l0.1,1.4v2.7L77,596l-0.1,1.3l0,0.4l0.2,5.6l0.1,2.5v0.3l-0.1,1.1l0.1,1.6l0.1,1.3v1.7
l-1.1,0.3l-0.5,0.3l-7.4,3.2l-1.4,0.5l-8,3.2l-2,0.8l-11.2,4.8l-1.9,0.6l-6.1,2.7l-3.2,1.4l-4.4,2.1L17,637.4l-0.1-1.6l0.1-1.4
l-0.1-1.3v-1.3l0.1-0.6l-0.1-0.2l-0.7-10.9l0.4-4.4l0.1-1l0.2-2.1v-3.5v-0.8l-0.2-10.9l-0.1-2.4l3.9-1.6l1.7-0.6l1.1-0.2l0.9-0.2
l0.4-0.3l1.2-0.5l2-0.5l1.7-0.5l1.8-0.5l2.2-0.5l1.3-0.5l1.8-0.8v-3.6h1.3h1.5l1.4-0.2l1.4,0.2l1.4-0.2h1.2h1.5h0.5h1.4l1.3-0.5
l-0.1-2.1h1.3H52l1.4,0.2l1.4-0.3h1.5l1.3,0.2l1.4-0.3l0.1-0.5l-0.1-0.9v-1.3L63.4,579.2L63.4,579.2L63.4,579.2z"/>
        <path id="_x33_1_x5F_3_3_" class="path" d="M76.4,577l0.2-0.6v-2.8"/>
        <path id="_x33_1_x5F_3_2_" class="path" d="M139.9,571.9l-0.2,1.6l-0.5,1.9l-0.1,0.2l-0.8,2.1l-1.2,1.3
l-2.1,1.4l-0.8,1.1l-1.2,1.9l-2.4,4l-1.8,1.1l-0.7,0.2l-0.2,0.3L126,589l-4.6,1.1l-8.7,2.1l-1.3-0.2l-2.7,2.7l-2.8,1.9l-0.4,1.7
l-0.8,1.3l-0.4,2.4l0.1,1.9l0.4,0.9l-1.9,0.6l-1.6,1.4l-0.5,0.5l-1.9,0.6l-1.3-0.2h-0.5l-3.3,0.2l-2.4,0.2l-3-0.3l-1.2-0.2
l-1.4,0.5l-5.2,2.2l-0.7,0.2l-2.7,1.3"/>
        <path id="_x33_2_x5F_3_2_" class="path" d="M163.8,526.8l0.8,6.3l-3.5,3.3v1.4l0.7-0.2l0.1,1.3l-0.8,0.2
v1.1l0.2,7.8l0,0.9l0.1,1.8l0.1,2.6l-0.1,4.3l1.1,1.1"/>
        <path id="_x33_3_x5F_3_3_" class="path" d="M145.9,594.7v-1.6l-0.1-0.6l0.1-0.3l-0.1-0.8l0.1-2.4l0.1-3.2
l0.2-2.2h-0.7l-0.2-1.9v-0.2l-0.2-1.9l-0.1-0.6v-1.7l-0.1-1.4l0.1-0.5h-0.6H143l-1.3,0.2h-1.2h-0.4l-1-0.2"/>
        <path id="_x33_3_x5F_3_1_" class="path" d="M139.9,560.7l1.2-0.5h0.6l1.8-0.2h1.2h0.2l0.6-0.2l0.4,0.2h1.2
l0.7,0.3h0.7h0.9l0.7-0.3l0.9,0l1.1,0h1.4l0.5-0.2h0.8h1.2h0.8h1.7h0.5l0.8-0.8l1.3-0.2l1.4-0.2h0.6l2,0.2l-0.1,1.9l-0.1,0.3
l3.3-0.2l3.3-0.2l2-0.3v1.3v1.1l-0.1,1.3l-0.6-0.5l-0.8,2.2l1.2,2.9l0.4-0.2l0.1,2.7l-1.1,0.6l0.6,10.6l-1.7,0.1l-1.2,0.1
l-1.2-0.6l0.4-4.6l0.4-0.3l-0.6-0.9l-0.5-0.8v-1.1v-0.5l-0.5-0.8v-0.9l0.1-1.6v-0.8l0.6-1.6l-0.6-4.6H168l0.1-0.8h-2.4l0.1,0.8
h-0.5l0.4,6.3l0.1,0.8l0.1,1.3l0.1,2.2l-0.8,2.4v2.2l0.7,1.1l0.6-0.2l1,3l0.2,0.5v2.2l-0.7,1.9l2.5,6.3l-0.1,1.6"/>
        <path id="_x33_5_x5F_3" class="path" d="M160.9,629.1l-0.2,0.3h-0.4h-1.1l-0.6-0.3h-0.8l-0.9,0.2h-0.5
l-1.4,0.2h-1.8l-2-0.2l-0.2,0l-0.9,0.1h-0.9h-1.3h-1.3h-0.4l0.1-3.2v-3.5v-2.9l-0.1-2.1l-0.6-0.2V612l-0.1-5.7l-0.1-2.1l-0.2-4
v-3.5v-2.1h0.8l1.3-0.2h1.5h0.7h1.2l0.4,0l1.7,0.1l1.6-0.2h2.1h0.9l0.9,0.2l1.3-0.2l0.6-0.2l0.8,0.3l0.4,0.6h1.5h1.2h0.6h1.3
l0.9-0.2h0.2h2.2l3.8,10.6l2,5.9l-0.4,2.1l1.8,0.9l0.5,2.5l-3.7,0.2h-0.9h-0.6h-0.4h-0.9l-1.3,0.2l-1.5-0.2l-0.1,2.2l-0.4,2
l-0.2,0.9l-0.2,0.8l-0.4,1.6l-0.2,1.4l-0.2,1.3l-0.4,1.4h-2.2l-1.1,0.2L160.9,629.1L160.9,629.1L160.9,629.1z"/>
        <path id="_x33_6_x5F_3_3_" class="path" d="M172.3,640.4l0.1-1.6v-0.3l-0.2-0.9l0.1-1.3v-1.6v-1.7l0.2-1.6
l0-0.3l0.1-0.5l-0.2-1.3l-3.7-0.3h-3.2"/>
        <path id="_x33_6_x5F_3_1_" class="path" d="M177.1,617.2l0.5,1.3l1.1,1.3l1.3,4.6l2.4,1.9v1.9l1.4,1.6
l6,10.3"/>
        <path id="_x33_7_x5F_3_3_" class="path" d="M138.7,676v-0.8l-0.2-10.9l-0.2-11.7l-0.2-1.1l-0.2-0.9v-3.6
l0.3-2.1l0.2-1.3v-1.1l0.2,0l0.2-1.4v-0.3l0.1-1.3l-0.2-1.4l-0.5,0.3L138,637v-0.2l-0.1-4.6l-0.2-2.7"/>
        <path id="_x33_7_x5F_3_2_" class="path" d="M140.6,629.6h0.6h0.8l1.8,0.2h0.4h0.6l0.2-0.2l0.5-0.2h0.4
l-0.1,0.8l0.1,0.5l0.2,1.4l-0.1,2.5l0.4,2.1l0.2,4.3l-0.1,2.9v0.8v1.4v1.6l-0.1,2.2v1.4v1.1l0.1,11.4l0.1,6l0.2,5.5"/>
        <path id="_x33_9_x5F_3" class="path" d="M184.3,663.2l-1.8,0.2l-1.2-0.2h-0.6l-1.9-0.2l-0.4,0.2l-1.5,0.2
h-1.2h-0.8l-2.2,0.2v-1.6l-0.1-1.4l0.1-2.9v-2.8v-1.4l-0.1-1.6l0.1-2.8l-0.1-2.7l-0.1-3l-0.1-1.4v-1.4h2.5l0.6-0.3l2.8,0.2h1.5
h1.5h0.6h1.4h1.2h0.8l0.8-0.2h3.5l2.2,5.2l4.4,3.3v2.1l6.7,9.3l1.1,0.5l0.6,0.3l-0.5,1.6l-0.2,0.5h-0.5l-0.6-0.2l-0.7,0.3
l-1.2-0.2h-0.8l-0.6,0.2l-1.4-0.2l-1.4,0.2l-0.6,0.2l-0.7-0.2h-0.9l-1.3,0.2h-1.5l-1.5-0.2l-2.1,0.2h-1.9L184.3,663.2L184.3,663.2
z"/>
        <path id="_x34_0_x5F_3_3_" class="path" d="M161.8,698.3h-1.8l-0.3,0.1l-0.3,0.1H159h-0.8h-2l0.1,0.3
l-1.9-0.2l-2,0.2l-1.4,0.3l-0.4,0l-0.1-0.8l-0.1-4.7h-1.3l-1.5,0.2l-0.5-0.2"/>
        <path id="_x34_0_x5F_3_2_" class="path" d="M146.4,663.8h0.9l2.6,0.2l1.1-0.1l0.7,0h1.9h2l1.9-0.2h1.1h0.6
l0.5,0.2l1.1-0.2h0.4v0h0h0.4h0.5h0.8h0.9h2h1.4h1.4l2.6-0.2h1.7l0.1,0.8l0.2,0.5v1.6l-0.1,2.9v2.9v2.8l0.1,2.9l0.1,2.8v2.9v3v0.8
l0.1,1.1l-0.1,0.9"/>
        <path id="_x34_1_x5F_3_1_" class="path" d="M204,662.8v4.6l0.8,1.9l2.8,2.4h2.1l0.5,1.9l-1.2,0.9l-1.3,0.2
l-1.9,1.4l3.1,8.7l-0.7,0.5l-0.8,0.2l0.8,0.2l0.2,3.3"/>
        <path id="_x34_2_x5F_3" class="path" d="M191.9,689h1.3l1.3-0.1l2.5-0.1l1.9,0.5l0.5-0.2h1.2l1.5-0.2
l1.2,0.2l0.5-0.2h1.5l2.4-0.2l0.8,0.2l8.9,7.3l-2.6,1.3l-1.5,1.3l-1.6,1.3l0.7-0.1h0.9h0.7l2.5,3.3l4.7,4.4l-1.5,0.6H218l-2.1,0.3
l-1.9-0.2l-1.5,0.2h-0.8h-1.8h-1.7l-1.3-0.2l-1.5,0.2l-1.4,0.2l-1.5-0.2l-1.5,0.2l-0.9-0.3l-1.8,0.3l-0.7-0.2h-0.4l-3.5,0.5h-3
h-0.5l-0.5-0.2h-0.9l-1.9,0.2H185h-1.4l-1.3,0.2l-1.5-0.2l-1.5,0.2h-1.3h-1.5h-1.3h-1.5v3l0.1,2.8l0.1,1.7l0.1,4l-3.9-3.5
l-1.8-1.7l-0.6-0.6l-1.6-1.7l-0.9-0.9l-2.8-2.8l-0.1-3L162,704l-0.1-2.8v-2.8l0.1-2.8l-0.1-3l-0.1-2.9h1.6h1.5l1.3-0.2h1.3h1.5
h1.4l2.7-0.2h2h1.9l1.9-0.2h3.9l1.8-0.2h2.1l1.8,0.2l1-0.1l1-0.1H191.9L191.9,689z"/>
        <path id="_x34_9_x5F_3" class="path" d="M140.2,768.1l0.1-1.3l-0.1-1.3l0.1-2.4l0.2-1.3l0.4,2.1l1.2,2.7
l0,1v0.5l0.9,1.3l1.3,1.3l0.2,0.5l1.8,2.5l0.9,1.3l1.5,2.1l0.6,0.6l0.8,1.1l0.7,0.1l0.5,0.1h0.9l0.5-0.2l1.1,0.2h0.2l1.2-0.2
l0.7-0.2l1.9,0.2l1.3,0.5l4.6,2l0.1,0.6v0.3l2.7,2.2l1.4,0.3l0.6,0.2l0.6,0.8l0.5,0.9l1.3,0.8l1.5,1l2.7,1.4l0.4,0.5l0.5-0.2
l0.8,0.2l-1.2,7l-0.4,1.7l-0.1,1.3l-0.2,1.4l-0.2,1.1l-0.1,1.1v0.6l-0.2,1.3l-0.5,1.9l-0.9,5.1l-0.5,1.7l-0.1,1.4l-0.4,1.4
l-0.4,1.4l-0.1,1.4l-0.4,2.1l-0.4,2.4l-0.6,3l-0.5,3.2l-0.2,1.3l-0.6,4.3l-0.2,1.4l-0.2,1.4l-0.4,2.8l-0.5,2.8l-0.1,1.4l-0.5,1.7
l-0.7,0.2h-0.4h-0.4h-0.9h-1.3l-1.4,0.2l-1.4-0.2h-1.3l-3.1,0.2l-2.6,0.2l-1.5-0.2l-0.8-0.2l-0.4,0l-0.2,0h-0.4l-1.1,0.2l-1.4-0.2
l-1.4,0.2l-1.4-0.2l-1.4,0.2h-1.4h-1.3h-1.7l-1.4,0.2h-1.4h-1.5l-1.2,0.2h-0.8l-0.8-0.2l-1.3,0.2v-3l-0.1-3.2V840l-0.1-2.7v-3
v-2.8l-0.1-3l-0.1-2.8v-2.8l-0.1-3v-2.8v-2.8h1.4h1.4h1.3h1.5h1.4h1.4l2.2-0.3h0.5l-0.1-1.1l-0.2-1.4v-1.6v-1.3v-1.6v-1.3l0.1-1.6
l0.1-1.4v-0.8l-0.1-0.5l-0.1-1.6l-0.1-2.8l-0.1-3l0.4-2.8l0-2.2l-0.1-4.1l0-0.4l0-1.3l-0.1-4l-0.2-1.9v-1.4l-0.4-2.4v-2.8
L140.2,768.1z"/>
        <path id="_x34_3_x5F_3_1_" class="path" d="M198,744l-0.4-0.1l-0.1,0l-0.3,0.2v-0.3v-0.8l-1.5-1.4
l-1.8-1.6l-1.7-1.3l-1.4-1.6l-2.4-2.1l-1.1-1.4l-0.7-0.6l-0.4-0.5h0.4l0.1-2.8v-3.2h1.4l-0.2-1.6l0.6-1.1l-0.2-1.3l-0.1-0.5v-1.3
h0.8l0.4-0.3l0.1-1l0.1-1.4v-0.6l-0.1-2.4l-0.4-1.7l0.6-4.4"/>
        <path id="_x34_3_x5F_3_2_" class="path" d="M221.1,707.8l3.5,7.3l3.9,0.3l-1.2,4.4l-0.4,0.8l1.7,1.6l2,3
l1.3,1.1l1.5,1.1l1.9,2.4l2.1,1.4l1.3,0.6l3.5,0.6l1.2-0.3l4.1-2.1l0.8,0.8l2.5,3.2l-1.8,1.9l-2.5,1.9"/>
        <path id="_x34_5_x5F_3_2_" class="path" d="M184.1,744l1.8-0.2l-0.2-2.8l-0.2-2.8L185,738l0.2-2.8h0.9
l1.3,0.5l0.5-0.2l0.5-0.3"/>
        <path id="_x34_6_x5F_3" class="path" d="M236.8,742.9l2.1-1.9l0.9-0.6l0.9-0.6l0.6-0.5l1.1-0.6l1.3,1.1
l1.3-0.6l0.5-0.2l1.2-1.1l1.3,4.7l1.6,0.5l1,0.3l4.1,1.3l7.6,4.1l0.7,10.6l-8,0.8h-3.1l0.1,0.6l3.1-0.2l8.3,0.2l0.5,4.6l0.8,6.5
l-9,5.2l-2-5.2l0.8,3.8l-0.1,2.4l-2.1,0.8l-3,2.2l-0.4,1.1l-0.5,0.6l-0.9,4l-0.1,0.6l0.2,1.6h-2.2l-2.2-1.4l-0.4-0.5l-0.2-0.3
l-0.9-0.9l-2.6-2.5l-0.6-0.6l-1.6-1.3l-0.9-1.1l-3.2-2.8l-0.7-0.8l-4-4.3l-1.4-0.9l-1.8-1.7l-1.1-0.9l-2.6-2.7l-1.8-1.7l-0.5-0.5
l-0.8-0.9l-0.5-0.5l-0.2-0.3l-2-1.4l-0.2-0.5l-0.9-0.9l-1.3-1.3l-1.5-1.4l-2-1.7l-1.7-1.4l-1.3-1.4l-2.1-1.9l-0.4-0.6l-1.5-1.6
l-0.5-0.2l-1.3-1.4L198,744l0.9-0.3l1.3-0.2l0.6,0.2l0.9-0.2h0.6h0.7h1.1h0.6h1.3h1.6h1.2l1.6-0.2l1.3-0.2l1.3,0.2l1.5-0.2h1.4
l1.4,0.3l1.5-0.3h1.5h1.4l1.5-0.3h1.3l1.4,0.2l1.8-0.2l0.9,0.2h1.1l0.6-0.2h1.1l0.4-0.2h1.2l0.5,0.2l1.3-0.2l1.2,0.2L236.8,742.9
L236.8,742.9z"/>
        <path id="_x34_7_x5F_3_1_" class="path" d="M175.3,789.9l0.1-1.4v-0.6l0.8,0.5l0.8-4h-0.5l0.6-2.8h-0.6
l0.6-2.8l0.2-1.4l0.2-1.6l0.1-1.4l0.6-1.4l0.8-0.2l0.4-2.4v-0.5l0.7-2.7l1.9-0.2h0.8h0.6l2.6-0.2l0.4,1.4l0.9,1.4l0.6,1.1l0.9,1.6
l0.7,1.7l0.6,1.3l0.5,1.6l0.8,1.6l1.3,2.5l1.2,3.2l0.9,1.9l0.5,1.8l0.1,0.3l0,0.3l0.2,0.3l0.7,1.1l-5,0.2h-1.3h-2.1h-1.3h-1.5
l-1.3,0.2l-1.4,0.2h-5.7"/>
        <path id="_x34_8_x5F_3_3_" class="path" d="M186.1,766.8h1.8h0.7h0.9h0.6h0.5l0.9-0.2h0.6l0.9,0.2l0.6-0.2
l0.8,0.2h0.4h1.3l1.7-0.2h0.5l2.5,0.2l3,0.2l1.2-0.3l1.7-0.2h1.4h1.8l1.1-0.2l1.3,0.2l1.4-0.2l1.6-0.2l1.5,0.3l0.9,0.3l0.6-0.3
l0.6-0.2l0.7-0.2l1.4,0.2l0.1-0.3"/>
        <path id="_x34_8_x5F_3_1_" class="path" d="M245.4,788.9l-1.2,0.2l-0.5-0.2l-0.7,0.2h-0.8l-0.8-0.2
l-1.3,0.2l-1.5,0.2h-1.7h-1.6h-1.5l-1.8-0.2l-1.8,0.2l-0.4,0.3l-1.7-0.3H227l-0.6,0l-4,0.1l-0.9-0.2l-0.2-0.6v-0.5l0.2-0.9
l-1.8,0.2l-4.4,0.3l-5.5,0.3l-10,0.3l-1.6,0.2l-2.5,0"/>
        <path id="_x35_0_x5F_3_1_" class="path" d="M196.5,789.9l1.5,2.2l0.1,0.6v2.2l0.4,6.2l0.1,1.8l0,0.7v0.6
l-0.7,8.9l-1.8-0.2l0.1,2.3l-1.5,1.7l-3.3,3.8l-2.8,2.8l-0.8,1l-4.1,10.4l-0.6,1.4l-0.9,2.4l-3,7.4l-0.7,1.9h-1.2l-0.8-0.2
l-3.7-0.2h-0.8l-1.3,0.2h-1.4l-2,0.3l-0.4-0.2"/>
        <path id="_x35_2_x5F_3_1_" class="path" d="M245.6,852l-0.1-11.7v-2.8v-2.7l-0.1-3v-2.8l0.1-2.8l-0.1-1.1
l0.1-1.9l1.3-2.7l-1.6-0.2h-0.7l0.5-7l4.1-5.4v-0.5v-4.3l-0.8-7l-0.4-1.9l0.8-0.6l0.5-2.5l-0.6-2.2l0.2-1.8l0.1-0.6l2.7,0.3
l0.5-1.4l-0.7-0.6l-1.9-1.7l0.4-0.5l0.7-0.8l2.6-1.7l7.9-4.5l2.7-1.5l5.3,11.3l1.1,1.7l0,1.4l0,1.1l-0.7,0.7l-0.3,0.9l-0.1,1.6
l0.2,1.4l0.5,1.2l0.3,0.7l0,1.7l-4.7,3.3l2.4,4.6l-1.7,2.4l0.9,1.6l3.3,2.3v1.4v1.1l-1.2,1.4l0.1,3.2l-0.1,1.6l0.1,0.3l-0.1,2.5
l0,0.8l0.1,2.7v2.2v0.7v2.3v0.7v2.1v0.8l0.1,2.7"/>
        <path id="_x35_3_x5F_3_2_" class="path" d="M166.1,848.2l-0.1,1.1l-0.1,1l-0.4,1.9l-0.4,2.2l-0.1,1.4
l-0.5,1.9l-0.2,1.9l-0.1,1.4l-0.4,1.4l-1.9,11.7l-0.7,3.9l-1.5,11.7l-0.8,0l-0.7,0l-0.5-0.2l-0.6-3.2l-2.2-1l-3.4,0.6l-0.4,0.4
l-3.5,2.8l-3.4,2.8l-0.6,0.2h-4.5h-1.8h-5.4l-6.6,0.6l0.1-1.1l-0.1-0.8l0.1-3.6l-0.1-4.1h0.6h1.4h1.5h1.4h1.5l-0.2-3.2v-2.7
l-0.1-1.9l0.1-0.9l-0.1-2.8h-1.5h-1.4H127h-1.5h-1.3h-1.4h-1.4h-1.5h-1.4l-1.5,0.2h-1.4H114h-1.5h-1.2h-1.1h-2.1l0.1-2.8l-0.1-2.7
l-0.1-3l0.1-3"/>
        <path id="_x35_3_x5F_3_1_" class="path" d="M153.7,848.5"/>
        <path id="_x35_4_x5F_3_3_" class="path" d="M178.7,848.1l-0.4,1.5l-0.1,0.6l0.2,1.2l0.4,13.3l1.3,2.5
l3.4,5.1l4,6l2.9,4.8l0.5,0.5l0.5,0.6l1.3,2l1,1.6"/>
        <path id="_x35_4_x5F_3_2_" class="path" d="M206.2,912.4h-1.4h-5.2h-2.9l-2.1,0.1l-3.3,0.2l-7.9-0.2h-6.6
h-2.9h-0.5h-2.7l-1.5,0.2h-1.6h-1.2l-2.5,0.2h-3v-1.9l0.2-1.4l-0.4-0.6l0.1-1.4l0.2-1.3l-0.1-1.7l-4.6-0.5l0.2-0.5l0.1-0.3
l0.6-1.9l0.3-0.8l2.3-10.7"/>
        <path id="_x35_5_x5F_3" class="path" d="M257.2,848.9l1.4,0.2h1.4h2.8v-3.3l0-2.4l0.1-5.7h1.2h1.4h1.3
l1.5,0.3l0.8,0.3v3.8l0.1,11.9l-0.1,1.2l0,0.3v7.1v1.3v0.6v1.4l0.1,0.6l0.1,0.5l-0.1,0.3v9.2l-0.1,1.6l0.2,8.1v1.4v6.3l-0.1,2.5
l0,0.3l0.2,4.6l0,0.6v1.7v0.8l-0.1,2.1l0,0.8v2.8l0.1,2.4l-0.4,0h-0.7l-0.2,0.2l-0.5-0.2l-14,0.2h-1.2l-0.7,0.3h-0.9l-0.6-0.2
h-0.7h-0.4l-0.2-0.3l-0.5,0.2l-0.6-0.2l-11.1,0.2l-6.5,0.2l-0.6-0.2l-0.7,0.2l-0.9-0.3h-0.8l-1.9-0.2l-2.2,0.2l-16.9-0.2l-0.2-2.1
l-4.3-9.4l-2.8-4.9l-3.2-4.9l-0.1-0.3l-1-1.3l-0.4-0.7l-0.5-0.9l2.1,0.2l2.7,0.3l1.8,0.3l6.4,0.5l5.5,0.3l0.9-0.2h13.3h0.4
l1.9-0.2l0.1-4.9v-9.6l0.6-0.3l2.2-2.7l2.8,5.8l0.2,0.5l0.8,1.6l2,3.5l0.4,0.4l0.9,0.9l1.5,1.3l1.5,1l1.1,0.8l1.1,0.9l1.9,1.3
l-2.1-13.9l1.9-9.2l-0.1-11.7V852h0.6h0.9h1.4h1.6h1.3v-3h4.2L257.2,848.9z"/>
        <path id="_x35_6_x5F_3_1_" class="path" d="M17,637.4l0.2,0.8l-0.1,4.9l0.1,2.9l0.1,2.8v3l0.1,2.5l-0.2,3
l0.4,3l0,0.3l-0.1,2.5l0.2,3.2l-0.1,1.3l0.1,3.2l0.1,3.3v2.7v0.8v3l0.1,2.9v2.9v3h-1.4h-1.3l-1.5,0.2l-1.5-0.2l-11.4,0.3h-11.3
l-3.4,0.3h-0.5h-0.7l-1.3,0.2h-1.4h-1.5l-1.4,0.2h-1.4h-1.5h-1.3h-1.4l-1.4,0.2h-1.5h-1.4h-1.4l-1.4,0.2h-1.5l-1.5,0.2h-1.4h-1.4
H-41h-1.5l-1.4,0.2h-1.4h-1.4h-1.4l-1.5,0.2l-1.3-0.2l-1.5,0.2h-1.5h-1.4l-1.4,0.2l-0.1-1.4v-1.6l-0.1-1.3v-1.6l-0.1-2.9v-2.9
v-2.5v-0.6l-0.1-0.6v-2.1l-0.1-1.4l0-1.6l5.3-3l0.4-0.2h0.4h1.2l1.4,0.2h1.5l1.4-0.2h1.4h1.4l1.4-0.2h1.5h1.4h1.4l1.5-0.2h1.4h1.4
h1.4h1.5l0.8-0.2h0.6h1.4l1.3-0.2h1.5h1.4h1.4h0.6h0.8h1.2h0.4l1.5-0.2l1.2,0.2l1.3-0.2h0.2l1.6-0.2l1.4,0.2l1.4-0.2l1.3,0.2
l1.5-0.2h1.4h1.4l1.5-0.2h1.4l1.4-0.2v-2.7v-2.9l-0.1-3v-1.9v-0.9v-3L0,649.2l-0.2-2.7v-0.9l5.1-2.1l0.3-0.1l4.3-1.8v-1v-0.5
l-0.1-0.5l0.1-0.6v-1.9v-1l-0.1-1.6l0.1-2.9h1.8v0l2.6-0.2l3.1,0.2"/>
        <path id="_x35_7_x5F_3_1_" class="path" d="M46.1,657.5l-2.8,3.8l-8.1,4.3l-0.1,0.8l-3,1.6l-2.7,1.6
l-0.1,1.3v0.9h-1.4l-1.4,0.2l-1.3,0.2l-1.4,0.2l-1.5-0.1l-1.6-0.2l0.1,1l0,1l-2.8,0.3"/>
        <path id="_x35_8_x5F_3_3_" class="path" d="M46.4,660.8l-0.4-3.3v-1.3v-2.1v-0.5l-0.2-11.1L45.7,631
l-0.1-1.3l-0.1-1.3v-1.1v-1.1l0.2-1.4"/>
        <path id="_x35_8_x5F_3_1_" class="path" d="M77.3,611.9l-0.1,4.1v1.4v1.6v2.9l0.5,2.7l0.9,1.7l0.2,0.6
l-0.5,0.3l-0.4,0.3l0.9,1.6v1.7h1.3h0.2l0.4,0l-0.1,0.3l0.2,1.6l-0.1,4.9l0,1.3v3.2l0.1,5.7l0.1,1.4l0.1,4.1l-0.7,0.2l0.2,1.4
l-0.1,1.6l0.1,3.2"/>
        <path id="_x35_9_x5F_3_2_" class="path" d="M115,629.9h-0.7h-1.1l-2.2,0.2h-1.2h-2.6l-1.4,0.1l-2.5,0.1
l-2.8-0.2l-1.5,0.2h-1.5l-1.2-0.2h-1.5l-1.4,0.2h-1.5h-1.4h-0.6l-8.7,0.3l-0.1,0.3"/>
        <path id="_x36_0_x5F_3_2_" class="path" d="M128.8,588.4l0.9,0.6l0.5,0.3l0.5,0.2l0.6,0.5v0.8l0.1,0.5
l0.1,0.8l-0.1,0.6l0.1,0.6v0.3l1.9-0.2l1.7,0.2l0.2,0.8l0.1,0.5v1.4l-0.1,1.6l0.4-0.2h0.8h0.6h0.6v1.4l-0.1,0.3l0.1,1.1v1.3
l0.2,1.4l0.1,1.1l-0.2,0.8v1.1l0.4,3l0.1,2.9l-0.9,0.2l0.2,5.5l0.1,5.9l-0.1,0.9l0,0.5l0.1,1.4l3,3h-3h-1.4h-1.3h-1.6H132h-1.4
h-1.4h-1.4h-1.5l-5.7,0.3H115l-0.7-0.5l-1.4-1.4l-0.4-1.7v-1.1l0.2-0.9v-1.4l0-4.5l0,0l-0.1-0.8l-4.2-5.5l-2.4-3.3l-0.5-1.6
l-0.5-1.6l-0.2-0.6"/>
        <path id="_x36_3_x5F_3" class="path" d="M80.9,659.7l0.5-0.5h2.1l2.6-0.2l0.6,0.2l0.1,0.6v1.1l0.1,1.4
l-0.2,1.1v1.6l0.1,1.4v2.2l0.2,1.4l0.1,2.2v1.3l0.1,1.6l0.2,1.3l-0.2,0.8v2.2l-0.1,5.7v0.6v2.4l-1.6,0.2l-0.8-0.2l-1.7,0.2
l-1.5,0.2l-1.5-0.3l-1.4,0.2l-1.4-0.2l-1.4,0.2h-1.4h-1.5l-1.4,0.2h-1.4h-1.4H67h-1.4l-1.4,0.2l-1.4,0l-1.4,0h-1.5h-1.5h-1.4h-1.4
H54l-1.4,0.2H51h-1.4H47h-0.4l-0.1-1.4l0.1-1.4l-0.1-1.4v-1.4v-1.4l-0.1-1.4v-1.4v-1.4v-3v-2.9V669l-0.1-1.6l0.1-1.3v-0.8v-4.6
l2.5-0.8h4.5h3.4h0.8l1.8-0.2l9.8-0.3l5.7,0.1l1.6,0l1.4,0l1.4,0L80.9,659.7L80.9,659.7L80.9,659.7z"/>
        <path id="_x36_4_x5F_3_1_" class="path" d="M12.8,712.4l-0.1-2.2v-0.6l0.1-2.9h-1.5l-1.4-0.2l-1.5,0.2H7
l-0.5,0.2H4.6L1.2,707L0,706.9l-1.8,0.2h-1.4h-1.4l-2.8,0.2h-2.8l-2.5,0.2h-0.5h-2.5l-0.4-0.2l-2.8,0.2l-3,0.2l-3,0.2h-2.8h-3
l-2.8,0.2h-2.8l-0.5,0.2h-2.5l-2.8,0.2l-3-0.2h-2.8h-1.4l-1.5,0.2l-3.1,0.2l-2.7,0.5l-0.1-2.1l-0.1-1.3v-0.5L-57,704v-1.4l0.2-1.4
l-0.1-1.4l-0.1-1.3l0.1-1.4l-0.1-1.4v-1.4l-0.1-1.4l0.1-1.6"/>
        <path id="_x36_5_x5F_3" class="path" d="M46.6,688.8H47l0.1,1.6v1.4v1.4l0.1,1.4v1.4l0.5,1.7l-0.2,1.4
l0.1,1.6l-0.2-0.5l-0.1,1.4l0.1,1.6l0,1.4l0,1.3l0.1,3l-0.1,1.4l0.1,1.5v1.4l0.1,1.6v1.3l-0.1,1.4l0.1,1.5l0.1,1.3l0.1,1.4
l0.1,1.3l-0.2,1.7l-0.1,1.5l0,2.8l0,1.4l0.1,1.6l0,2.3l-6.1-3.5l-5.4-3.3l0,1.1l0.1,7.2v1.3v0.9v0.3v1.4l0.1,0.6l-2.6,0.2h-3.7
l-5.1,0.2l-5.7,0.5l-1.3,0.1h-1.5l-3,0.1l0-0.4v-0.6l-0.1-1.3l-0.1-0.5l0.1-3.8v-0.9v-2.7v-1.1l-0.5-3.2v-0.8l-0.1-7.1v-0.5
l-0.1-0.5v-0.9v-0.3v-0.5v-4h1.4h1.3l1.5-0.2h1.5l-0.1-1.4l-0.1-1.4l-0.1-1.4l-0.1-1.4l-0.1-1.4l-0.1-1.6l0.1-2.8v-1.1l-0.1-1.7
l-0.1-0.8l0.1-2.1l-0.1-2.9l-0.1-2.8h1.5l1.5-0.2h1.3h1.5h1.3l1.5-0.2h1.5l1.3,0.2h1.5l1.4-0.2h1.4h1.4l2.7,0.2l2.8-0.2h3
L46.6,688.8z"/>
        <path id="_x36_7_x5F_3_1_" class="path" d="M87.5,676.5h2.2h1.5h1.3l1.6-0.2h1.2h1.5h1.4l1.4,0.2l1.4-0.2
h1.4h1.5h1.4l1.4-0.2h1.5h1.3h2.8l3.1-0.3v0.3"/>
        <path id="_x36_7_x5F_3_2_" class="path" d="M117,733.4l-3.5,0.2l-2.2,0.2h-2h-2h-1.8l-1.5,0.2l-1.3-0.2
l-0.2,0l-1.3,0.1h-1.5l-1.2-0.2h-1.4h-1.7l-1.3,0.2h-3.7h-1.9l-0.7-5.5l0.1-2.4v-0.5v-1.4v-1.4h0.8h-0.8l0.2-1.9l-0.1-1.3v-1.3
l0.1-1.4l-0.1-1.6l-0.1-1.4l0.2-2.7l-0.2-5.5v-3.2l-0.1-0.8l0.2-1.7l-0.4-1.9l-0.4-1.7l-0.1-8.1"/>
        <path id="_x36_8_x5F_3" class="path" d="M115.7,675.8l1.3,0.2l1.4,0.2h1.4h1.4l3-0.2h2.8l2.8,0.2l2.2-0.3
l0.8,0.2l2.7-0.2l3.1,0.2l1.3-0.3h1.4l1.3-0.2h0.5l0.7,0.2l0.1-0.2h0.5l0.8-0.2h1.4v0.8l0.2,5.1l-0.1,1.6l0.2,4.4l-0.1,0.6
l0.1,2.2v1.9v1.6l-0.8,0.2l0.1,2.2v2.1v0.8l-1.4,0.5l0.1,2.1v0.9v0.3v0.8l-0.1,1.3l-0.2,0.6l0.1,1.9l0.1,3h-1.1l-0.2,1.9l-0.1,3.6
l-1.2,0.3l-0.5-0.2h-1.1l-0.1,2.8l-1.4,0.3l0.2,2.7l-0.2,2.5l0,0.3l0.5,0.2l-0.1,3l-0.1,2.5l-1.1,0.3l-0.2,2.7h-1.1h-0.4h-1.6
h-0.6h-0.7l0.1,2.8h-0.1h-0.6l-0.6,0.2h-1.4l-1.3,0.2l-1.7-0.2l-0.2-3.2l-1.1,0.2l-1.5-0.2H124l-1.4,0.2l-1.2,0.2l-1.4-0.3
l-1.4,0.3H117v-1.3l-0.2-1.3v-1.4v-1.6v-1.4V725l-0.1-1.4V722v-2.7v-3l-0.2-2.8l-0.1-2.8v-2.8v-2.9l-0.1-2.8V700l-0.2-0.8v-2.7v-3
l-0.1-2.8l-0.1-3l0.1-1.7v-1.1l-0.1-2.9v-3v-2.9L115.7,675.8L115.7,675.8z"/>
        <path id="_x37_0_x5F_3_1_" class="path" d="M47.7,734.4l4.5,0.3l1.5-0.2h5.5l11.7-0.3l5.8-0.2h1.5l4.2-0.2
h1.8h3.4h0.7l0,4.4l0,1.3l0,1.3l0,1.4l0,3.3l-0.2,1.4v1.4v5.9l0.1,1.5l0.1,1.2l0.8,3.2l2.4,4.1l0.8,1.4l1.6,2.8h-0.5h-3.2
l-1.6,0.2h-5.7l-5.8,0.2h-0.2h-0.7h-0.8h-0.9l-0.4,0.2l-1.4-0.2h-1.4l-1.4,0.2h-1.7h-1.3h-1.3h-0.2l-1.2,0.5l-1.8-0.3h-1.3L60,769
l-11.3,0.5h-0.4h-2.6h-2.8l-2.8,0.2h-2.4h-0.6l-1.1-0.2l-0.5,0.3h-1.2H33h-1.5L31,770h-0.8l-1.4-0.2l-1.4,0.2l-1.5-0.2l-0.5,0.2
h-0.9h-1.5l-1.3,0.2h-1.3h-0.7l-0.9,0.3l-1.3-0.2l-1.4-0.2H14l0.1-1.1l0.2-1.6V766l-0.1-1.6v-0.6l-0.1-0.6v-1.6v-3l-0.1-5.9
l-0.2-5.7l-0.1-0.6l0-1.9l0-0.7l-5.8,0l-0.1-1.8l0-1.5l5.8-0.3v0.6l-1.3,0.1l0,0.8l0,0.2l0,1.1l1.3,0v-0.6l0-0.8l0-0.5"/>
        <path id="_x37_1_x5F_3_1_" class="path" d="M140.9,779.1l-1.5,0.3h-1.5h-1.4h-1.5h-1.4l-1.3,0.2l-1.4-0.2
h-1.4l-1.3,0.2v-1.7l-3.3,2.1l-0.5-0.2l0.7-2.8l0.4-1.7l0.5-1.3h-0.2l-0.6-0.2l-1.5-0.2l-1.4,0.2l-1.3,0.2h-0.2h-1.2h-1.4
l-1.5-0.2h-1.5h-1.4l-1.4,0.2l-1.4-0.2l-1.5,0.2h-1.4l-1.3,0.2h-1.5h-1.3l-0.1,1.6l0.1,1.6l-1.4-0.2h-0.5l-0.5,0.1l-0.4,0.1h-0.6"/>
        <path id="_x37_1_x5F_3_2_" class="path" d="M133.3,736.1l0.1,3.2v2.7l0.1,2.8l0.5,0.2"/>
        <path id="_x37_2_x5F_3_1_" class="path" d="M94.2,768.6l4.7,7.1l1.2,1.6l0.8,2.8l0.5,0.6l4.2,10.9l1.4,4
l0.8,2l2.2,5.3l1.3,4.3l0.1,0.6l2.4,4.7l0.6,1.6l0.5,0.2l-0.6,0.8l-0.7,2.1l-0.6,2.4l-0.2,0.6l-0.4,1.4l-1.3,4.4h-1.9h-2.1
l-2.7,0.2h-2.6l-2.7,0.2l-0.6-0.2h-0.4H98h-1.4h-0.7h-0.9h-0.5l-1.3,0.2l-0.4-0.2l-1.2-0.2l-1.4,0.3h-1.4h-1.4h-1.3l-1.4,0.2h-1.5
h-1.4h-1.4l-1.2,0.2h-0.5h-1.3h-0.8l-0.6,0.2l-0.9-0.2l-0.7,0.2l-1.3-0.2h-5.8"/>
        <path id="_x37_2_x5F_3_2_" class="path" d="M67,813.6H70l2.7,0.2l-0.2-1.6l0.1-1.6v-1.4l-0.1-1.4l-0.1-1.4
v-1.4l0.1-1.3l1.4-0.2l1.4-0.2l1.5,0.2h1.4h0.9H81h1.5h1.5l-0.1-3v-3l-0.1-2.7l-0.1-2.8l-0.1-1.4v-1.4V785l-0.2-4.9v-2.7l-0.1-1.3
v-7.4h0v0"/>
        <path id="_x37_4_x5F_3" class="path" d="M37.8,804.1l1.4-0.2h1.4l1.4-0.2h1.5H45h1.5h1.4l0.2,3h1.3v2.7v3
v2.8l1.3,0.2l1.5-0.3l1.5,0.2l1.4-0.2h1.4l1.4,0.2l1.4-0.2L61,815l0.1-1.3l3.3-0.2h1.4H67v1.4l0.2,11.5l0.2,10.1l0.1,1.4l0.1,5.7
l-0.5-0.2h-0.6h-0.7h-1.4l-1.3,0.2l0.1,1.1l0.1,1.3l-0.1,0.6h-1.4v0.9l0.1,2.1l-1.5,0.1L59,850h-2.8v1.4l0,0.6l-0.1,0.9l0.2,1.7
l-0.1,1l-2.7,0.3h-2.9h-1.3v-1.4h-0.6l-0.1-0.8l0.7-0.2V853v-1.6V850l-1.8,0.3l-2.8-0.2h-2.8h-1.9h-1.2h-1.3h-1.3h-1.7l-0.7,0.2
l-0.6-0.1l-1.6,0.1l-2.5,0.2l-2.9,0.2h-7.8l-2.5,0.2l-0.2-11.7h1.3l1.5-0.2h2.8h3h1.4h1.5l5.1-0.3h1.7l4.6-0.2v-2.7v-2.8l-0.1-1.7
l-0.1-4v-1.4l0.1-1.6l-0.1-1.4l-0.1-1.4v-1.4v-1.4v-2.8l-0.2-3l0.1-1.4l0.1-1.4l-0.2-2.8v-1.4L37.8,804.1L37.8,804.1L37.8,804.1z"/>
        <path id="_x37_5_x5F_3_4_" class="path" d="M67.5,838.1l6,0l-0.1-2.8l-0.1-3l-0.2-3l-0.1-2.7"/>
        <path id="_x37_5_x5F_3_1_" class="path" d="M130.8,848.7h-3.7H125l-1.4,0.2h-1.4h-1.4h-1.4l-1.4-0.2
l-1.4,0.2h-1.4h-1.5h-1.2h-0.7h-0.9h-1.1l-0.5,0.2l-1.3-0.2l0.1,2.8v3v2.8l0.1,2.8l-0.7,0.2h-0.8l-1.4,0.2l-1.3,0.2l-1.4-0.3h-0.4
l-0.7,2.3l-0.1,0.4l-1.7-0.5l0.8-2h-0.9l-2,0.2h-0.8h-0.6l-0.4-0.2l-0.4,0.2h-1.3h-0.5l-1.7-0.2l-2.1,0.2h-2.4h-2.2h-1.4l-1.5,0.2
l-1.3-0.2l-1.5,0.2h-0.9l0.5-1.4l0.6-1.6l-0.1-1.3l-0.1-1.6l0.1-1.4l-0.1-1.4v-1.4v-1.4H79h-1.2h-1.5H75h-1.3l-5.9,0.3l-0.1-6l0,0
"/>
        <path id="_x37_5_x5F_3_2_" class="path" d="M111.2,825.9h0.5h0.7h0.8h2.1h0.8h0.7h1.7h0.6l1.8-0.2h1.6h2.2
h1.3l1.5-0.2h1.4h1.3"/>
        <path id="_x31_0_x5F_3_x5F_1_4_" class="path" d="M-31.7,354.1l-3.2,0.2l-0.1,1.9l1.8,1l1.5,1l1.4,1
l1.1,0.5v1.6l-0.1,1.9l0.1,2.4l-0.1,1.3l0.1,1.6l-0.1,2.4v0.6l-0.1,2.9v2.7l-1.3,0.2l-1.5-0.2l-1.4,0.2h-0.7l-1.3,0.1l-1.1-0.1
l-2.7-0.2l-1.4,0.2l-0.1,0.6v0.6v1.6v3v2.7l-0.1,2.1l0.1,0.8l-0.1,3l-0.1,2.9v2.9v2.1h-1.4h-1.4l-1.5,0.2h-1.4h-1.3h-1.4h-1.5
h-1.3h-1.5h-1.4h-1.5h-1.4v0.8l-1.3,0l-0.4,0.2h-1.1l-1.1-0.2l-1.5,0.2v-1.3l-0.1-1.8l0.1-1.3l0.1-1.4l-0.1-1.4l0.1-1.4l-0.2-1.6
l-1.3,0.2h-1.4l-1.4,0.2h-1.6H-71h-1.5l-1.4,0.2l-1.4,0.2v1v0.3l-0.1,1.4l0.1,1.4l-0.1,1v0.4v0.2l-0.7,0.1l-0.9,0.2h-0.2l0-0.6
l-0.3,0v-3.4l0-0.7l-0.7,0v-0.3v-1.1h-3h-2.2l-1.2,0.2l-1.2-0.2l-0.2,0l0,0l-1.1,0.1v0.8v0.8l-6.1,0.2l0.2-1.4l-0.7-0.2h-0.6h-0.4
l0.1-1.3h-0.7l0.1-0.5v-0.6l-3.7,0.2l0,0"/>
        <path id="_x31_0_x5F_3_x5F_1_2_" class="path" d="M-63.5,348.4l1.3,0.2l0.2-1.1l1.4-0.2l1.4,0.2l1.4-0.2
l0.6,0.3l0.1,0.6h1.7l0.4,1.6h1.5l1.2-0.2v-1.3l2-0.2h1.8l2-0.2l1.3,0.2l0.1,0.8l0.8-0.3"/>
        <path id="_x31_0_x5F_3_x5F_1_1_" class="path" d="M-98.9,371.3l1.7,0.3l0.4,0.1l1,0l2.7,0.6l1.6,0.2
l2.2,0.5l2.3,0.4l1.2,0.1l2.7,0.6l0.1-1.4l0.1-0.6V371l0.1-1.4l0.6-4.3v-1l0.2-1.6l0.2-1.3l0.2-0.9l0.3-2.9l0.1-1.4l-0.1-1.4"/>
        <path id="_x37_6_x5F_3" class="path" d="M-189.6,341.7l0.2-5.4l0.6,0l0,3.7l0.4,0l-0.1,1.6l6.4-0.2l0-5.7
l2.5,0l0.6-0.2l11,4.8l1.3,0.8l0,3.6l0.9-0.2l0-0.8l0.7-0.6l1.9,0.2l1.2,0.8l-0.1,1.9l-5.5,0.1l-5.5-0.2l-4.4-2.7l-1.7,0.1
l0.1,0.9l1.3,0l4.8,3.1l3.9-0.1l0.1,2.5l2.8,0.3l10.7,2.5l0.2,2.9v1.4l0.2,0l4-0.5l0.8,0.1l3.6,13.5l0.7,2.7l1.4,4.9l0.3,2.2
l0.5,1.3l1.2,5.3l-0.6,0.2l-2.3,0l0,4.3l3.7,0l1,0.1l3.9,0l0.5,0.1l-0.1-0.8l0.9,0l-0.1,0.7l1.5,0l3.1,0l1.6-0.1l0.6,0.1l1.7-4.1
l2.6-3.5l1.9-2.5l0-0.4l0.1-4.5l0-1.3l-0.1-0.9l0.2-1.1l0.8-3.8l0.1-1.6l-0.9-1l11.4,2.8l1.2,0.2l10.6,2.1v0.8v1.3v0.3l0.1,1
l-0.1,1.4l0,0.5v3.2v1.1v0.8l0,0v0.6l0,0v0.3l0,0l0.1,2.1l0,0v0.8l0,0l0,0v0.2l0,0l0,0v0.3l-0.1,1.3l0,0v1.3l0,0l0,0v0.5l0.1,0.6
l-0.1,0.6h-5.9v1.4l0.8-0.2h3h0.5l0.1,3.7l1.4,0.2v0.8l0.1,1.1l-1.4,0.2h-0.7h-0.8h-1.4l-0.9,0.2l-0.5-0.2l0.1-2.4v-0.6l-6,0v0.2
v0.6l0.1,2.4v1.3v1.6l-0.1,2.9l1.4-0.2h1.5h1.5l1.3-0.2l0.9,0.2l0.5-0.2l0.9-0.2l0.6,0.2h1.4h1.5v2.1l-0.1,3v0.5l0.1,2.4l-0.1,0.8
l0.1,0.3l-0.1,1.5l0,0.8l0.2,5.6v3.2v2.9l-0.1,3l0.4,2.9l0.1,2.9l-0.1,2.7l1.4,0.2l0.1,3l0.2,3.5l0.1,2.2v2.5l-1.5,0.2l-9.4,0.3
h-3l-3.4,0.2l-2.4-2.4l-2.2-7.2l-1.3-4.3l-0.5-1.7l-0.4-2.9l1.4-4l7.4-0.5l0.1-1.6l-0.2-4.8l-4.6,0.2h-0.5h-0.4h-0.2l-0.3,0
l-5.9,0.3l-0.3,0l-1.1-3l3.2-7.1l0.8-4.4l0.9-2.5l0.7-8.6l-1.8-1.6l-4.1,1.9l-2.7-3l-0.5,0.2l-5.4,0l-0.6,0.2l-1.8,0l-0.7-0.2
l-3.3,0.2l-2.3-0.1l-4.2-0.1l-0.6,0.2l-3.2,0l0.1,11.8l-5.5,0.2l0,0.2l5.5,0l0.1,8l0.2,4.8l-3.3,0.6l-1.9-1l-2.7-0.5l-2.9-0.5
h-1.3h-2.6l0.1,5.6l0.2,3.8l-0.1,2.7h-2.8l-2.6-0.2l-5.1,0.5l-2.6-0.6l-5.5-1.6l-3.8-1.7l-0.5,1.4l-2.7-1.3l-0.1-2.1l0.1-5.1
l-0.7-0.3l0.1,5.9l-0.2-0.2l-0.9-5.5l-1-0.2l-2.7-0.4l-0.6-0.1l-0.7-0.1l-2.2-0.8l0,1.8l0.1,3.6l0,1.9l-4.8-1.4l-0.2-7l-6.7-1.4
l-0.3-7.6h-3.5l0-3.5l-0.5,0.1l-0.4,0.5l-0.8,1.1l-0.2,0.5l-0.1,0.6l0,0.7l-3.3,0l-0.1-4.4l0-5.7l-0.1-1.4l0.1-1.4l0-2.4l-0.2-2.8
l0-0.9l0.1-0.7l-0.1-15l0.1-0.6l-0.1-0.5l-0.1-7.4l-0.1-2.2l1.2-0.2l4.1-10l-0.3,0l-1.8,3.6l-0.1-1.4l-3.1,0.3l-0.1-0.5l0-1.7
l-0.1-0.3l5.3-0.5l0.8-1.4l0.3-0.2l-0.2-11l0.4,0l1.6-0.3l0.3,4.3l-1.1,0l-0.1,2.2l0.3,3.9l0,0.8l3.9-4.3l0.2,3.1l5.2,0l0.6-0.1
l0.1,1.7l5.7,0l-0.1-4.3l0.2-1.9L-189.6,341.7z"/>
        <path id="_x37_7_x5F_3_2_" class="path" d="M91.9,353l1.4-0.2h1.5l0.5,0.2h1.8l0.2-0.2l1.3-0.2h1.4
l1.3-0.2h1.6h1.3h1.4h1.4h1.5v0h0l1.5,0l0.9,0l1.6-0.2h1.5l1.2,0.2l0.5,2.4l-0.1,2.9l0.4,3.7l-0.2,2.2l0.2,1.3l-0.7,0.2l0.5,1.9
l4,5.4l1.2,0.6l-0.4,1.7l-0.2,5.1l0.6,1.6l-0.5,1.7l1.1,1.8l0.5-0.6l1.6,0.2l1.3,0.3"/>
        <path id="_x37_7_x5F_3_1_" class="path" d="M92.5,387.3V386l0.1-1.6l-0.1-1.4l-0.2-1.4l0.1-1.4l-0.1-1.4
v-1.4v-1.4l-0.1-1.4v-4V368v-4"/>
    </g>
    <g class="logan-square">
        <path class="ls-title" d="M29.9,430.7c-0.3,0.2-0.4,0.2-0.6,0.2c-0.1,0-0.2,0-0.2-0.1c-0.2,0.2,0.1,0.4,0.9,0.1c0.1,0,0.2,0,0.1,0
c-0.2,0.1-0.7,0.4-0.9,0.4c-0.3,0-0.5,0.1-0.7,0.2c-0.8,0.3-2,0.7-2.8,1.1c-0.2,0.1-0.4,0.3-0.6,0.3c-0.1,0-0.4,0-0.6,0
c-0.1,0-0.2-0.1-0.2-0.1h-0.3c-0.2-0.2-0.4-0.6-0.5-0.6h-0.1c0.2-2.1,2.4-5.3,3.5-6.8v-0.2c0.7,0,1,0.5,1,1.1
c0,0.1-0.6,1.5-0.8,1.9c-0.1,0.3-0.5,0.6-0.7,0.9c-0.1,0.2-0.2,0.5-0.3,0.6c-0.1,0.2-0.5,0.4-0.4,0.8c0.8-0.3,1-0.3,1.1-0.3
c0.1,0,0.3-0.1,0.4-0.1c0.2,0,0.4,0.1,0.5,0.2c0.1-0.1,0.5-0.3,0.6-0.3c0.2,0,0.2,0.1,0.3,0.1c0.2,0,0.8-0.2,1.2-0.3
c0,0,0.1,0,0.1,0.1v0c-0.4,0.1-0.9,0.2-1.2,0.4l0.1,0.1c0.4-0.1,1.1-0.5,1.5-0.6c0.1,0,0.3,0.2,0.3,0.2c0.2-0.1,0.5-0.2,0.5-0.2
C31.3,430.1,30.5,430.5,29.9,430.7z M25.5,429.8c-0.1,0.2-0.2,0.4-0.1,0.5l0.2-0.5L25.5,429.8z M28.7,431.1c-0.6,0.1-2,0.6-2.8,1
l0,0l3-1L28.7,431.1z M26.2,428.9c-0.1,0-0.2,0.1-0.2,0.2h0.2V428.9z M27.8,430.6l0.3-0.1C28,430.5,27.8,430.5,27.8,430.6
L27.8,430.6z M30.1,429.9C30,429.9,29.9,429.9,30.1,429.9l0.1-0.1c0.1,0,0.1,0,0.1,0.1L30.1,429.9z M30.4,430.8
c-0.1,0-0.1,0-0.2,0v0c0.7-0.3,0.8-0.4,0.9-0.3L30.4,430.8z M30.8,430c-0.1,0-0.1-0.1-0.2-0.1c0,0,0.5-0.2,0.5-0.1
C31.1,429.8,30.9,429.9,30.8,430z" style="stroke-dasharray: 47px, 49px; stroke-dashoffset: 0px;"></path>
        <path class="ls-title" d="M37.4,430.5c0.1,0.1,0,0.3-0.2,0.3l-0.1-0.2c-0.1,0-0.2,0.1-0.1,0.2c-0.1,0-0.3,0.1-0.3,0.2
c0,0.2-0.2,0.1-0.3,0.2c-0.1,0.1-0.2,0.3-0.4,0.5l-0.1-0.1c-0.3,0.2-0.1,0.3-0.5,0.5c-0.2,0.1-0.4,0.1-0.6,0.1
c0,0,0.1,0.1,0.1,0.1l-0.2,0.1l-0.3-0.2c-0.2,0.1,0,0.4-0.3,0.5c-0.3,0.1-0.5,0.2-0.9,0.3c-0.2-0.2-0.4-0.1-0.6,0
c-0.4-0.3-0.9-0.7-1.2-0.9c-0.3-0.2-0.4-0.8-0.4-1.4c0-2.9,3.6-4.8,4.5-4.8c0.3,0,0.5,0.2,0.9,0.5c0,0.6,0.6,1,1.1,1.3
c0.5,0.3,0.6,0.9,0.6,1.6C38,429.6,37.8,430.2,37.4,430.5z M36.1,428c0-0.1-0.1-0.2-0.1-0.1s-0.1,0.1-0.1,0.1
c-0.1,0-0.1-0.1-0.1-0.1c-0.6,0-1.7,0.7-2.2,1.5c-0.6,0.3-1,1-1.2,1.8c0.3,0,0.6,0,0.9-0.1l2.2-0.9c0.2-0.1,0.8-0.3,1-0.6
l0.5-0.7L36.1,428z M33.1,429.4c-0.2-0.1-0.4,0.1-0.4,0.2c0,0.1,0,0.1,0.1,0.1L33.1,429.4z M33.2,432.7c0-0.1-0.1-0.1-0.2-0.1
c0,0-0.1,0-0.1,0.1L33.2,432.7z M34.7,431.9c0,0,0,0.1,0,0.1c0,0,0.1,0,0.2,0C34.9,431.9,34.9,431.9,34.7,431.9z M35.4,431.5
c-0.2,0.1-0.3,0.2-0.3,0.3l0.3-0.2L35.4,431.5z M35.7,431.2l-0.2,0.2l0,0.1l0.2-0.1C35.8,431.4,35.8,431.3,35.7,431.2z" style="stroke-dasharray: 40px, 42px; stroke-dashoffset: 0px;"></path>
        <path class="ls-title" d="M38.9,429.4c0.2-0.2,0.9-2,2.4-2.8c0.1-0.1,0.1-0.2,0.2-0.3c0.7-0.4,1.1-0.6,2.2-0.6c0.8,0.2,0.6,0.7,1.1,1
c0,0.2-0.1,0.3-0.2,0.4c0.1,0,0.2,0.1,0.2,0.2c0,0.1-0.1,0.1-0.1,0.1c-0.1-0.1-0.4-0.3-0.6-0.3c-1.3,0-4.2,2.1-4,3.8
c0.9,0.1,2.1-0.1,2.4-0.3c0.2-0.1,0.3-0.3,0.4-0.4c0.3-0.5,0.8-1.1,1.2-1.5c0,0,0.1,0.1,0.2,0.1c-0.1,0.1-0.2,0.3-0.2,0.4
l0.3-0.4c0.3,0.1,0.5,0.2,0.6,0.7c0.3,0-0.1,0.6,0,0.7c-0.9,0.9-1.2,1.1-1.3,1.2c-0.1,0.3-0.3,0.7-0.4,1.2l0,0.1
c0.2-0.4,0.3-0.7,0.4-1.1l0.1-0.1c-0.3,0.8-0.6,1.7-1,2.5c-0.1,0.2,0,0.3-0.1,0.5c-0.1,0.2-0.2,0.5-0.4,0.5h-0.2v-0.2
c-0.5,0.1-0.8-0.2-0.9-0.5l0.3-0.5c-0.2,0-0.3,0.2-0.3,0.4H41c0.3-0.7,0.5-1.2,0.8-1.7c0.2-0.4,0.3-0.1,0.3-0.8l-0.2,0.1
c-0.2-0.2-0.6-0.1-0.9,0.2c-1,0-1.5-0.2-2-1.1h-0.1c-0.2-0.6-0.1-1.1,0.1-1.6L38.9,429.4z M40,430.6c-0.1,0.1-0.1,0.2-0.1,0.3
c0,0.1,0,0.1,0.1,0.2L40,430.6z M44.4,429.4l-0.2,0.3c0.2,0,0.3-0.2,0.4-0.2C44.5,429.3,44.5,429.3,44.4,429.4z" style="stroke-dasharray: 46px, 48px; stroke-dashoffset: 0px;"></path>
        <path class="ls-title" d="M51.1,430.6c-0.1,0.2-0.1,0.7-0.3,1c0.2,0.1,0.1,0.4-0.1,0.5c0.1,0.2,0.1,0.3-0.1,0.6c0,0,0.1,0,0.1,0
c0,0.4-0.1,0.7-0.2,1.1c-0.4,0-0.7-0.4-0.9-0.3c0-0.2,0-0.3-0.2-0.3l0-0.2c0.1,0,0.1,0,0.1-0.1c-0.1,0-0.1,0-0.1-0.1
c0-0.3,0.2-0.6,0.2-1c0.1,0,0.1,0.2,0.1,0.3c0.1,0,0.2-0.5,0.2-0.8l-0.1-0.1c0,0.2,0,0.5-0.2,0.4c0-0.2,0.1-0.6,0.1-0.7l0.2,0.3
c0-0.1,0-0.2,0-0.4c-0.7,0-2.5,0.9-3,1.3l-0.1,0.2l0,0.1c-0.2,0.4-0.4,0.9-0.6,1.2l-0.8-0.3c0-0.4-0.6-0.5-0.4-0.8H45
c0.3-1.8,2.3-3.8,3.4-5.3c0.6-0.7,1.1-1.2,1.6-1.6c0.1-0.1,0.4,0,0.4-0.2c0.2,0,0.5,0.2,0.7,0.3l-0.2,0.1c0,0.2,0.3,0,0.3,0
c0.4,0.4,0.2,1,0.4,1.4c0,0.1,0,1.1-0.2,1.2c0,0,0,0,0.1,0c-0.1,0.3-0.2,0.6-0.2,0.9c0,0.1,0.4,0.6,0.4,1.1
C51.6,430.5,51.4,430.5,51.1,430.6z M47.3,431.5c-0.1,0.1-0.1,0.1-0.1,0.2l0.9-0.5C48,431.1,47.6,431.4,47.3,431.5z M47.9,431
c-0.1,0-0.2,0-0.3,0.1l-0.1,0.2C47.5,431.3,47.8,431.2,47.9,431z M50.8,426.9c-0.2,0-0.8,0.7-1.3,1.4l-0.1-0.1
c0-0.1,0.1-0.2,0-0.2c-0.2,0.2-0.3,0.3-0.2,0.6c-0.2,0.2-0.3,0.5-0.5,0.6c-0.2,0.3-0.5,0.8-0.8,1.2c0.2-0.1,0.4-0.4,0.9-0.6
c0.4-0.2,0.7-0.2,1.1-0.3c0-0.3,0.2-0.5,0.2-0.7l0.2,0.2c0.1-0.4,0.3-1.3,0.4-1.9L50.8,426.9z M48.7,431L48.7,431
c-0.3,0-0.4,0-0.4,0.2C48.4,431.1,48.6,431.1,48.7,431z M49.7,432.2l0,0.2h0.1L49.7,432.2L49.7,432.2z M50.1,429.3
c0,0.1,0,0.1,0.1,0.1l0-0.1H50.1z M50.2,429.1L50.2,429.1l-0.1,0.1h0.1L50.2,429.1z M50.6,427.6h-0.1l0.1-0.3l0.1,0L50.6,427.6z" style="stroke-dasharray: 50px, 52px; stroke-dashoffset: 0px;"></path>
        <path class="ls-title" d="M60.4,426.1c0.1-0.1,0.4-0.1,0.6-0.2c0.4,0,0.8,0,1,0.2l-0.2,0.2l0,0c0.1,0,0.3-0.1,0.4-0.1l0.3,0.4
c-0.6,0.3-1.7,1.1-2.4,2c-0.1,0.1-0.1,0-0.2,0c0,0.4-0.3,0.7-0.6,1.1c-0.1,0.1,0,0.3-0.1,0.4c0,0.1-0.2,0.1-0.2,0.3
c-0.3,0.9-0.7,1.9-1.1,2.9l-0.5-0.3l-0.1,0.2c-0.8-0.2-0.8-0.5-0.9-1.3c0-0.3,0.1-0.9,0-1.1c-0.3-0.8,0-1.2-0.1-1.8l-0.1-0.5
c-0.4,0.1-0.8,0.5-1.1,1l0,0.2c-0.6,1.1-1.1,2.7-1.7,3.4h-0.3c-0.3,0-0.5-0.8-0.7-0.9l-0.1-0.5c-0.1-0.4,0-0.5,0.1-0.7
c0.9-2.1,2.2-3.3,3.2-4.3c0.4,0.1,1.3,0.7,1.5,1.2c0.1,0.4,0.3,1.1,0.4,1.6c0.8-1.4,2-3.2,2.3-3.3l0.3,0c-0.7,0.7-1.3,1.6-1.6,2
c-0.1,0.2-0.2,0.3-0.1,0.3l0.1,0C58.9,427.9,59.7,426.8,60.4,426.1z M55.7,426.9l-0.3,0.3C55.5,427.3,55.7,427.1,55.7,426.9
L55.7,426.9z M59.2,430.7l-0.1-0.1c0-0.2,0-0.4,0.2-0.3L59.2,430.7z M60.2,427.9c-0.1,0.1-0.3,0.4-0.2,0.5L60.2,427.9
C60.3,428,60.2,427.9,60.2,427.9z M60.1,426.7l0.2-0.3l-0.1,0C60.2,426.4,60.1,426.5,60.1,426.7C60,426.6,60.1,426.7,60.1,426.7z
M60.5,427.5l-0.2,0.3c0.1,0,0.1,0,0.1,0.1L60.5,427.5C60.6,427.6,60.6,427.5,60.5,427.5z M61.4,426.5l0,0.1
c0.1-0.1,0.2-0.1,0.2-0.3L61.4,426.5z" style="stroke-dasharray: 52px, 54px; stroke-dashoffset: 0px;"></path>
        <path class="ls-title" d="M26.2,437.9c0.4,0.1,0.6,0.5,0.6,0.9c0.1,0,0.1,0.1,0.1,0.2c0,0.3-0.4,0.6-0.9,0.7c-0.3-0.3,0.1-0.3,0-0.5
c-1.2,0-1.8,0.2-2.9,1v0.2l0.5,0.4c0.5,0.4,1,0.5,1.4,0.9l0.1-0.1c0.3,0.4,0.6,0.8,0.5,1.1l-0.1,1l-0.2,0c-0.3,0.5-1,0.9-1.8,1.2
c-0.4-0.2-0.6-0.1-0.6,0.2c-0.6,0.2-1.1,0.3-1.3,0.3c-0.2,0-0.5-0.2-0.7-0.5c-0.5-0.1-0.6-0.4-0.5-0.6c-0.2-0.2-0.3-0.4-0.3-0.6
c0-0.3,0.2-0.5,0.4-0.6c0.2,0.2,0.5,0.6,0.7,0.6c0.6,0,1.7-0.3,2.4-1v-0.1c-0.3-0.3-0.5-0.8-0.8-0.7c-0.3-0.4-0.5-0.6-0.7-0.5
c-0.2-0.1-0.5-0.4-0.6-0.8c-0.1-0.4-0.2-0.8-0.2-1.1c0.1-1,2-2,3.5-2c0.3,0,0.7,0,1,0L26.2,437.9z M23,444.9l-0.4,0.2l0.1,0.1
L23,445V444.9z M24.1,439.5c-0.4,0.1-0.9,0.3-0.9,0.5L24.1,439.5L24.1,439.5z M26.4,439.7l0.3-0.2c0,0.1,0,0.2-0.2,0.3
L26.4,439.7z" style="stroke-dasharray: 37px, 39px; stroke-dashoffset: 0px;"></path>
        <path class="ls-title" d="M36.5,447.2l-0.4-0.1h0c-0.2-0.3-0.3-0.5-0.6-0.6l0.4,0.6c-0.6-0.2-0.8-0.9-1.1-1.3
c-0.3-0.3-0.4-0.7-0.8-1.1v-0.2c-0.5-0.5-0.9-1-1.3-1.5c-0.3,0.2-0.5,0.5-0.8,0.7c0-0.1,0-0.2,0-0.3c-0.3,0.2-0.8,1.2-1.4,1.2
c-0.1,0-0.2,0-0.4,0c-0.3,0.3-0.9,0.2-1.4,0.4c-0.1-0.1-0.3-0.4-0.3-0.2l-0.1,0.1c-0.2-0.2-0.4-0.5-0.6-0.7l0,0.1l-0.3-0.1
c-0.2-0.4-0.4-0.9-0.4-1.4c0.4-2.1,1.6-4.1,3.7-4.9c0.3-0.3,0.9-0.4,1.4-0.4c0.5,0,0.8,0.5,1.1,0.7l0.1,0.9h0.1
c-0.1,0.2-0.1,0.5-0.2,0.7c-0.1,0.2-0.4,0.4-0.7,0.6c0.1,0.3,0.3,0.5,0.4,0.8l-0.2,0.2c0,0.4,1.4,2.5,2.6,3.6
c0.5,0.4,1.2,1.1,1.2,1.8C36.6,446.9,36.6,447.1,36.5,447.2z M32.1,439.5c-1,0-2,1.4-2.5,1.7c-0.2,0.3-0.5,0.9-0.6,0.9
c-0.1-0.1-0.2,0-0.3,0.1l0.2,0.1c-0.1,0-0.2,0.1-0.2,0.2l-0.4,1H29c0.4,0,2-0.7,2.1-0.9c0.2-0.2,0.6-0.6,0.6-0.8
c0-0.3-0.7-0.7-0.7-1.4c0-0.4,0.7-0.6,1.2-0.5l0.1-0.4H32.1z M28.8,444.6c-0.1,0.1,0,0.2,0.1,0.3l0.1-0.1L28.8,444.6z
M29.3,441.4c-0.1,0-0.4,0.2-0.4,0.4c0,0,0,0.1,0,0.1L29.3,441.4z M30.2,444.6c-0.1,0-0.1-0.1-0.2-0.1c-0.1,0-0.1,0-0.1,0.1
C29.9,444.7,30,444.7,30.2,444.6z M31.4,444L31.4,444c-0.2,0.1-0.5,0.2-0.6,0.3c0,0,0,0.1,0.1,0.1L31.4,444z" style="stroke-dasharray: 55px, 57px; stroke-dashoffset: 0px;"></path>
        <path class="ls-title" d="M43.4,439.7c-0.2,0-0.6,0.2-0.3,0.3c0.1,0,0,0.2-0.2,0.2l-0.2-0.1c-0.2,0.3-0.3,0.7-0.2,0.7l-0.1,0.3
c-0.2,0-0.3,0.3-1,1.2l0.1,0.1c0.3-0.4,0.6-0.8,0.8-1.2c0.1,0.1,0.1,0.2,0,0.3c-1.7,3.1-4.1,3.5-4.8,3.5c-0.1,0-0.1,0-0.1-0.1
c0,0,0-0.1-0.1-0.1s-0.1,0-0.1,0.1c0,0,0,0.1-0.1,0.1c-0.3,0-0.5-0.3-0.7-0.5l-0.1,0.1c-0.5-0.3-0.7-0.8-0.7-1.4
c0-0.5,0.1-1,0.3-1.4c0.6-1.2,1.5-3.4,1.9-4.4c0.1-0.1,0.3-0.2,0.4-0.2c0.3,0,0.6,1,0.7,1.2l0.2-0.1v0.3
c-0.3,0.6-0.9,1.7-1.2,2.4c-0.1-0.1-0.1-0.2,0-0.3c0.1,0,0-0.2-0.1-0.1c-0.3,0.4,0,0.6-0.1,0.9c0,0.1-0.1,0.2-0.2,0.4
c-0.1,0-0.2,0.1-0.3,0.2c0.1,0,0.1,0,0.2,0h0c-0.1,0.2-0.2,0.4-0.3,0.6c0-0.1-0.1-0.2,0-0.3l-0.1-0.1c-0.1,0.2-0.2,0.4-0.2,0.5
c0,0.1,0,0.1,0.2,0.1c0,0.1-0.1,0.2-0.1,0.3c2.4,0,3.5-1.8,4.5-3.9c0-0.1,0.2,0,0.3-0.1c0.1-0.1,0.1-0.2-0.1-0.1
c0.2-0.4,0.4-1.1,0.5-1.3c0-0.1,0.1-0.1,0.2-0.1c0.1,0,0.2,0.1,0.3,0.2c0.1,0.1,0.3,0.2,0.3,0.2c0.1,0.1,0.1,0.4,0.1,0.6
c0,0.3,0,0.6,0.3,0.6L43.4,439.7z M38.3,444.6c-0.2-0.3-0.6-0.2-0.5,0c0,0.1,0.1,0.1,0.2,0.1S38.3,444.6,38.3,444.6z M38.1,440.3
C38.1,440.3,38.1,440.3,38.1,440.3l0.1,0.2c0.1-0.1,0.3-0.6,0.2-0.7L38.1,440.3z M39.2,444.3c-0.2,0.1-0.5,0-0.5,0.3
c0.2,0,0.5-0.1,0.7-0.3C39.4,444.3,39.3,444.3,39.2,444.3z M39.6,444.1l0,0.1c0.3-0.1,0.7-0.4,0.9-0.6
C40.2,443.7,40,443.9,39.6,444.1z M41.4,442.5c-0.2,0.2-0.3,0.3-0.2,0.5l0.3-0.4L41.4,442.5z" style="stroke-dasharray: 51px, 53px; stroke-dashoffset: 0px;"></path>
        <path class="ls-title" d="M48.9,442.6c-0.1,0.2-0.1,0.7-0.3,1c0.2,0.1,0.1,0.4-0.1,0.5c0.1,0.2,0.1,0.3-0.1,0.6c0,0,0.1,0,0.1,0
c0,0.4-0.1,0.7-0.2,1.1c-0.4,0-0.7-0.4-0.9-0.3c0-0.2,0-0.3-0.2-0.3l0-0.2c0.1,0,0.1,0,0.1-0.1c-0.1,0-0.1,0-0.1-0.1
c0-0.3,0.2-0.6,0.2-1c0.1,0,0.1,0.2,0.1,0.3c0.1,0,0.2-0.5,0.2-0.8l-0.1-0.1c0,0.2,0,0.5-0.2,0.4c0-0.2,0.1-0.6,0.1-0.7l0.2,0.3
c0-0.1,0-0.2,0-0.4c-0.7,0-2.5,0.9-3,1.3l-0.1,0.2l0,0.1c-0.2,0.4-0.4,0.9-0.6,1.2l-0.8-0.3c0-0.4-0.6-0.5-0.4-0.8h-0.2
c0.3-1.8,2.3-3.8,3.4-5.3c0.6-0.7,1.1-1.2,1.6-1.6c0.1-0.1,0.4,0,0.4-0.2c0.2,0,0.5,0.2,0.7,0.3l-0.2,0.1c0,0.2,0.3,0,0.3,0
c0.4,0.4,0.2,1,0.4,1.4c0,0.1,0,1.1-0.2,1.2c0,0,0,0,0.1,0c-0.1,0.3-0.2,0.6-0.2,0.9c0,0.1,0.4,0.6,0.4,1.1
C49.3,442.5,49.1,442.5,48.9,442.6z M45.1,443.5c-0.1,0.1-0.1,0.1-0.1,0.2l0.9-0.5C45.7,443.1,45.3,443.4,45.1,443.5z M45.6,443
c-0.1,0-0.2,0-0.3,0.1l-0.1,0.2C45.3,443.3,45.5,443.2,45.6,443z M48.5,438.9c-0.2,0-0.8,0.7-1.3,1.4l-0.1-0.1
c0-0.1,0.1-0.2,0-0.2c-0.2,0.2-0.3,0.3-0.2,0.6c-0.2,0.2-0.3,0.5-0.5,0.6c-0.2,0.3-0.5,0.8-0.8,1.2c0.2-0.1,0.4-0.4,0.9-0.6
c0.4-0.2,0.7-0.2,1.1-0.3c0-0.3,0.2-0.5,0.2-0.7l0.2,0.2c0.1-0.4,0.3-1.3,0.4-1.9L48.5,438.9z M46.4,443L46.4,443
c-0.3,0-0.4,0-0.4,0.2C46.1,443.1,46.3,443.1,46.4,443z M47.5,444.2l0,0.2h0.1L47.5,444.2L47.5,444.2z M47.9,441.3
c0,0.1,0,0.1,0.1,0.1l0-0.1H47.9z M48,441.1L48,441.1l-0.1,0.1H48L48,441.1z M48.3,439.6h-0.1l0.1-0.3l0.1,0L48.3,439.6z" style="stroke-dasharray: 50px, 52px; stroke-dashoffset: 0px;"></path>
        <path class="ls-title" d="M55.7,440.4c-0.5,0.3-0.3,0.5-0.9,0.8c-0.2-0.3-0.5,0-0.9,0.3c1.1,1,2.4,2.7,3.6,2.7c0.6,0,1.2-0.2,1.4-0.2
c0.1,0,0.3,0.2,0.4,0.3c-0.2,0.1-0.4,0.1-0.7,0.2l0,0c0.2,0,0.4,0,0.3,0.1c-0.1,0.1-0.6,0.3-1,0.5c-0.1,0,0,0.1,0.1,0.1
c0.5-0.2,1-0.5,1.3-0.8c0,0,0.1,0.1,0.1,0.2c-0.6,0.6-1.8,1.2-2.7,1.2c-0.5-0.2-1-0.4-1.3-0.7c-0.6-0.6-2.2-2.9-2.9-3.2
c-0.3,0.4-0.8,1.4-1,1.9c-0.1,0.2,0.2,0.5,0.1,0.7c-0.1,0.3-0.4,0.5-0.7,0.7c-0.2,0-0.5-0.2-0.6-0.4l-0.2-0.5
c0.3-0.2-0.1-0.1-0.1-0.3c0-0.6,2-4.9,3.1-6.7c1,0,0.7,0.8,0.8,1.2c0.4-0.2,0.9-0.3,1.3-0.3c0.3,0,0.5,0,0.7,0.1l-0.1,0.2
c0.2,0,0.4,0,0.4-0.1l0.2,0.1c0,0.1-0.1,0.1-0.1,0.2c0.1,0.1,0.2,0.1,0.2-0.1c0.2,0.2,0.3,0.4,0.3,0.7c0,0.1-0.1,0.3-0.2,0.4
c-0.3,0.3-0.7,0.6-1.1,1L55.7,440.4z M51.9,442.9l-0.3,0.6l0.1,0.1L51.9,442.9L51.9,442.9z M54.3,441.5l-0.1-0.1
c0.1-0.1,0.3-0.2,0.4,0L54.3,441.5z M55.6,438.3l0.4,0.1l0.1-0.1C55.9,438.2,55.6,438.3,55.6,438.3z M57.3,445.4
c-0.2,0-0.3,0.1,0,0.2c0.2,0,0.5-0.1,0.7-0.2v0c-0.1,0-0.1-0.1-0.1-0.1L57.3,445.4z" style="stroke-dasharray: 49px, 51px; stroke-dashoffset: 0px;"></path>
        <path class="ls-title" d="M64,439.2c-1.1,0.5-2.2,0.5-3.3,0.8c-0.1,0.2-0.3,0.5-0.5,0.8c0.5,0,1.5-0.5,1.8-0.5s0.5,0.1,0.7,0.6
c0,0.1,0,0.3,0.1,0.3l-0.1,0.3c-0.7,0.1-2.5,0.4-3.1,0.7c-0.3,0.1-0.6,1.5-0.6,1.7c0.4,0.3,0.9,0.2,1.3,0.1l0.1,0.1
c0.1,0,0.2-0.1,0.2-0.1c0.2,0,0.2,0.3,0.4,0.2c0.8-0.2,1.7-0.5,2.3-0.7c0,0,0.1,0,0.1,0c0,0.1-0.2,0.1-0.3,0.2l-0.8,0.3
c0.1,0,0.2,0.1,0.3,0.2c0,0,0,0,0,0c-0.6,0.2-1.3,0.4-2,0.6c0.2,0.1,0.4,0.1,0.7,0c0.5-0.1,1.1-0.4,1.7-0.6c0,0,0.1,0,0.1,0.1
c-0.1,0.1-0.2,0.2-0.3,0.3c-0.8,0.3-1.8,0.7-2.5,0.7c-1.4,0-2.4-0.6-2.4-2.4c0-0.9,0.8-2,1.6-3.8c-0.1-0.3,0-0.6,0.2-0.9
c0.6,0.1,0.9-0.9,1.4-0.9c0.2,0,0.9,0.2,1,0.2c0,0.3,0,0.5-0.2,0.9c0.2,0,0.8,0.1,1,0.1l0.1,0.2c0.1,0,0.2-0.1,0.3-0.1
s0.4,0.1,0.6,0.1c0,0,0,0,0,0c-0.5,0.4-0.8,0.2-0.7,0.5c0.4-0.1,0.7-0.2,1-0.4c0,0,0.1-0.1,0.1,0C64.4,439,64.1,439.1,64,439.2z
M58.9,443.4c0,0.2-0.1,0.4,0,0.4l0.1-0.3L58.9,443.4z M59.1,442.7l-0.1,0.4l0.1,0.1l0.2-0.6L59.1,442.7z M59.2,442.6L59.2,442.6
c0.1-0.1,0.2-0.2,0.2-0.3c-0.2,0-0.2,0.1-0.2,0.2V442.6z M59.8,440.9l0.2,0l0.1-0.3C60,440.6,59.9,440.8,59.8,440.9z M60.4,440.1
l-0.2,0.3l0.2,0l0.2-0.3L60.4,440.1z M62,443.7c-0.3,0.3-0.8,0.4-0.9,0.2c0.6-0.1,1.1-0.3,1.5-0.5c0,0,0.1,0,0,0
C62.5,443.6,62.2,443.7,62,443.7z M63.1,438.8l0,0.1l0.2-0.1C63.3,438.8,63.2,438.8,63.1,438.8z" style="stroke-dasharray: 54px, 56px; stroke-dashoffset: 0px;"></path>
    </g>
    <g class="star">
        <polygon class="st2" points="41,450 42.5,455.4 48,454 44,458 48,462 42.5,460.5 41,466 39.5,460.5 34,462 38,458 34,454
39.5,455.4 		"/>
    </g>
</svg>