<svg width="575" height="9" viewBox="0 0 575 9" xmlns="http://www.w3.org/2000/svg">
  <title>
    Fill 1
  </title>
  <path d="M0 6.226c.003 0 0-1.035 0-1.035.327-.015.654-.032.982-.044 1.03-.04 2.02-.19 3.078-.197 1.186-.01 2.38.003 3.57-.028.55-.014 1.106.063 1.657.054 1.124-.02 2.247-.08 3.372-.104.55-.013 1.11.04 1.66.015.6-.026 1.19-.112 1.787-.162.294-.025.604-.06.89-.035.69.06 1.364.053 2.04-.047.088-.014.202.025.306.035.19.017.384.032.576.045.804.226 1.336-.047 1.914-.086.463-.03.944.024 1.417.034.184.004.448.026.538-.03.543-.328 1.208-.24 1.89-.23.627.012 1.26-.073 1.893-.094.91-.03 1.822-.043 2.734-.058 1.118-.018 2.237-.042 3.355-.04.38 0 .76.104 1.138.102 1.565-.008 3.13-.028 4.695-.064.993-.023 1.983-.09 2.976-.125 1.326-.046 2.654-.1 3.983-.116.567-.007 1.138.107 1.707.108 1.04 0 2.078-.045 3.118-.064 1.303-.024 2.607-.05 3.91-.056.723-.002 1.446.06 2.168.055.605-.004 1.208-.066 1.813-.092.434-.02.873-.035 1.31-.03 1.442.013 2.88-.02 4.323-.06 2-.055 4.003-.056 6.005-.073 1.087-.01 2.175.003 3.263-.002 1.597-.007 3.193-.02 4.79-.03.17 0 .343.034.513.03 1.33-.04 2.66-.09 3.99-.125.35-.01.706.043 1.06.04.396-.005.79-.04 1.188-.063 1.055-.057 2.11-.118 3.164-.168.718-.034 1.438-.053 2.157-.076 1.186-.04 2.37-.09 3.556-.108.81-.013 1.624.025 2.436.03.19.002.382-.047.575-.052.98-.026 1.963-.05 2.945-.066 1.682-.027 3.364-.036 5.045-.072.606-.013 1.206-.09 1.812-.118 2.288-.04 3.245-.09 4.205-.114 1.536-.04 3.074-.054 4.61-.096 1.38-.04 2.756-.114 4.136-.15 1.282-.03 2.567-.018 3.85-.046 1.29-.03 2.58-.093 3.87-.124 1.403-.034 2.81-.045 4.214-.07 1.137-.02 2.273-.047 3.41-.063.704-.01 1.408.004 2.11-.004 1.335-.014 2.67-.04 4.003-.053 1.07-.01 2.166-.088 3.204.01 1.058.103 2.075-.077 3.124.024.74.07 1.536-.044 2.306-.04 1.53.007 3.062.062 4.592.054 1.384-.007 2.766-.083 4.15-.11.943-.02 1.888-.003 2.832-.017 1.296.056 1.115.12.903.198.347.216.806.19 1.09.086.37-.132.075-.246-.226-.36 2.032-.056 3.027-.122 4.022-.182 1.155-.07 2.31-.137 3.464-.205.335-.02.67-.05 1.004-.056 1.24-.027 2.48-.042 3.72-.07 2.125-.046 4.25-.1 6.377-.147.92-.02 1.843-.02 2.763-.044 1.318-.037 2.635-.086 3.95-.136.983-.037 1.964-.083 2.91-.123-.016.11-.033.217-.05.323.583-.12.503-.19.38-.3.22-.034.416-.098.602-.09 1.742.074 3.455-.088 5.18-.158.974-.04 1.958.02 2.935 0 .882-.017 1.76-.085 2.64-.12 2.078-.01 3.303-.035 4.528-.056.193-.004.386 0 .614.054-.184.055-.398.094-.538.172-.07.04 0 .15.004.23.213-.03.53-.024.62-.1.26-.22.45-.315 1.05-.332.803-.022 1.59.113 2.416 0 .8-.107 1.668-.07 2.507-.078 1.38-.012 2.764-.01 4.146-.012 1.446-.002 2.893.014 4.338-.006.9-.013 1.798-.092 2.7-.117.852-.024 1.707-.01 2.56-.027.99-.018 1.977-.06 2.967-.073.663-.01 1.327.018 1.99.013.655-.005 1.31-.036 1.965-.047.566-.008 1.134-.004 1.7-.005 1.347 0 2.694.008 4.04-.002 1.637-.013 3.273-.066 4.91-.056 1.567.01 3.134.088 4.703.114 1.28.022 2.566-.01 3.846.017 1.154.025 2.303.1 3.605.16l-1.007.235.047.11c.377.025.754.058 1.132.078.795.043 1.59.087 2.385.116.964.035 1.93.066 2.895.077.425.005.852-.04 1.277-.067.05-.003.142-.04.138-.05-.14-.362.417-.24.665-.255 1.4-.085 2.807-.145 4.21-.212 1.397-.068 2.79-.157 4.19-.194 1.735-.047 3.474-.043 5.21-.074 1.745-.03 3.487-.08 5.23-.118 1.21-.027 2.422-.04 3.63-.078.943-.028 1.88-.1 2.823-.123 1.34-.033 2.682-.055 4.023-.055 1.377 0 2.754.045 4.132.048.832 0 1.664-.05 2.497-.06 1.192-.01 2.385.006 3.578-.005.994-.01 1.987-.06 2.98-.057 1.715.006 3.43.05 5.145.06 1.912.01 3.825-.006 5.738.004 1.193.007 2.386.037 3.577.065.554.013 1.106.062 1.66.067 1.033.01 2.068-.01 3.1 0 1.236.01 2.47.05 3.706.056.715.003 1.43-.048 2.148-.056.326-.003.653.057.98.058 1.616.007 3.234-.002 4.85.005 1.554.007 3.106.03 4.66.042 1.524.01 3.05.01 4.573.024 1.255.012 2.51.063 3.765.05 1.005-.01 2.008-.096 3.013-.132.23-.008.47.08.702.075 1.9-.052 3.8-.125 5.7-.168.776-.017 1.557.037 2.336.037 1.017-.002 2.035-.037 3.052-.034.863.003 1.726.037 2.59.06.383.01.767.03 1.15.042 1.492.044 2.983.12 4.474.12 1.53.002 3.06-.077 4.59-.11.328-.007.66.052.993.053 1.265.008 2.53-.005 3.796.007.817.008 1.632.048 2.45.07.832.022 1.666.037 2.5.06 1.626.042 3.252.095 4.88.13.895.017 1.793-.01 2.688.01.744.015 1.483.082 2.226.108.564.02 1.132.002 1.697.014 2.052.04 4.105.07 6.154.135 1.167.036 2.327.135 3.492.196.6.032 1.206.048 1.81.06 1.304.026 2.608.054 3.913.063 1.49.01 2.983-.013 4.473.01 1.186.016 2.37.093 3.555.12.935.02 1.872-.003 2.807.007 1.055.012 2.11.06 3.163.057 1.04-.002 2.078-.046 3.117-.073.6-.016 1.198-.034 1.797-.052 1.444-.043 2.888-.094 4.333-.13 1.99-.05 3.983-.123 5.975-.122 2.014 0 4.03.064 6.043.127 1.145.036 2.284.127 3.426.19 2.53.138 5.06.267 7.585.413 1.966.114 3.927.25 5.89.372.85.052 1.704.086 2.555.135 1.05.06 2.096.14 3.147.19 1.708.08 3.42.14 5.13.21 1.9.08 3.803.17 5.706.237 1.18.043 2.365.064 3.55.082 1.745.028 3.492.05 5.24.066.816.008 1.633-.007 2.45.007.2.003.395.08.593.122.07.015.143.046.21.043.97-.043 1.937-.11 2.908-.13.89-.018 1.783.018 2.674.024.586.004 1.174-.015 1.76.003.868.026 1.735.08 2.604.11.207.008.42-.05.628-.045.902.03 1.803.094 2.706.105 1.04.013 2.082-.034 3.122-.02.715.008 1.427.087 2.143.11.294.01.592-.06.89-.063.7-.01 1.402-.023 2.1.002.506.02 1.003.12 1.51.14.57.02 1.144-.01 1.716-.02.273-.004.577-.152.81.057.007.006.176-.048.275-.063.15-.024.307-.04.505-.063v.505c.945-.12 1.84-.255 2.75-.33.302-.023.9-.135.904.277 0 .05.507.138.78.137 1.137-.002 2.32.106 3.33-.313.098.13-.004.23-.107.33.232.042.46.11.697.12 1.68.07 3.363.145 5.047.188.664.017 1.334-.04 2.118-.07.182.122 1.015.208 1.52.098.457-.1.923-.186 1.385-.278l.07.105-.816.16c1.41.125 2.8.34 4.226.077.008.024.03.093.048.156 1.248.075 2.475.176 3.707.207.406.01.827-.158 1.224-.24-.106.213.185.253.595.26.537.01 1.073.05 1.608.077l.05-.14-.85-.117c.05-.037.104-.108.148-.106.517.02 1.03.05 1.54.078l-.71.193c1.978.327 5.254.455 5.478.3.375.042.646.078.92.102.92.04 1.456.1 2 .124.108.005.31-.105.343-.18.1-.216.404-.26.665-.19.267.074.42.262.674.36.252.097.556.176.858.21.484.053.987.054 1.48.092.718.056 1.436.122 2.152.19.557.053 1.106.14 1.666.167.697.034 1.4.015 2.1.035.183.006.354.098.54.11.844.052 1.694.083 2.54.14.02 0 .06 1.915.06 1.915H0V6.226z"/>
</svg>
