<?xml version="1.0" standalone="no"?>
<!DOCTYPE svg PUBLIC "-//W3C//DTD SVG 20010904//EN"
 "http://www.w3.org/TR/2001/REC-SVG-20010904/DTD/svg10.dtd">
<svg version="1.0" xmlns="http://www.w3.org/2000/svg"
 width="260.000000pt" height="260.000000pt" viewBox="0 0 260.000000 260.000000"
 preserveAspectRatio="xMidYMid meet">
<metadata>
Created by potrace 1.11, written by Peter Selinger 2001-2013
</metadata>
<g transform="translate(0.000000,260.000000) scale(0.100000,-0.100000)"
fill="#000000" stroke="none">
<path d="M1382 2408 c-22 -51 -48 -120 -57 -153 -9 -33 -22 -82 -30 -110 -8
-27 -17 -61 -20 -75 -2 -14 -25 -104 -50 -200 -25 -96 -47 -184 -50 -195 -2
-11 -9 -40 -16 -65 -6 -25 -12 -52 -14 -60 -11 -53 -46 -171 -60 -204 -21 -49
-31 -35 -29 39 1 30 -2 58 -7 60 -4 3 -5 13 -2 22 5 12 3 14 -7 8 -9 -5 -11
-4 -6 4 4 6 0 18 -8 27 -22 21 -21 45 2 37 16 -6 16 -5 -1 14 -17 19 -46 118
-49 168 -1 11 -9 25 -18 31 -22 17 -61 99 -55 117 4 9 -1 16 -14 20 -12 3 -19
1 -15 -4 3 -5 -1 -10 -8 -10 -26 -3 -43 3 -51 16 -8 15 -100 12 -159 -6 -32
-10 -37 -16 -36 -43 1 -32 20 -80 52 -128 10 -16 15 -28 12 -28 -4 0 9 -25 29
-55 19 -31 35 -65 35 -78 0 -12 7 -31 15 -41 8 -11 15 -25 15 -32 0 -7 5 -25
11 -41 8 -22 12 -25 20 -13 8 11 9 6 5 -17 -4 -26 -2 -33 10 -33 13 0 15 -7
10 -35 -6 -32 -5 -35 16 -32 25 2 42 18 29 27 -5 3 -11 25 -15 49 -3 25 -10
47 -15 51 -6 3 -6 11 -1 20 6 8 10 13 11 10 7 -41 11 -54 25 -75 9 -14 13 -25
9 -25 -3 0 0 -7 9 -15 8 -9 18 -31 22 -50 3 -19 10 -33 14 -30 5 3 11 1 14 -4
4 -5 2 -12 -3 -15 -5 -4 -5 -22 1 -46 9 -35 8 -43 -8 -54 -21 -16 -41 -11 -47
12 -3 10 -5 5 -6 -10 0 -16 4 -28 9 -28 6 0 10 -11 10 -25 0 -14 6 -41 14 -59
8 -19 19 -59 26 -89 11 -54 27 -76 82 -110 58 -36 108 24 123 144 7 63 43 247
49 258 7 10 15 54 26 138 12 94 20 123 32 123 6 0 7 8 3 18 -10 24 -8 53 9
101 7 22 10 38 5 35 -5 -3 -6 2 -3 10 3 9 10 14 14 11 5 -3 6 4 3 16 -3 12 0
24 6 29 7 4 13 28 14 54 1 25 6 46 11 46 5 0 7 3 3 6 -3 3 -1 18 5 33 5 14 12
40 15 56 2 17 7 41 9 55 3 14 8 41 11 60 3 19 9 42 13 50 5 9 4 24 -2 34 -7
13 -7 20 2 26 6 4 14 27 16 51 2 24 9 58 15 76 9 27 21 223 14 223 -2 0 -21
-42 -43 -92z"/>
<path d="M1795 1870 c-22 -10 -62 -28 -90 -40 -27 -12 -80 -42 -117 -66 -67
-43 -86 -62 -50 -50 10 4 7 -2 -8 -13 -14 -11 -21 -23 -17 -27 4 -4 -3 -18
-15 -31 -14 -15 -17 -23 -8 -23 8 0 -1 -11 -19 -24 -31 -23 -91 -106 -91 -126
0 -6 -4 -10 -9 -10 -10 0 -20 -35 -30 -108 -8 -54 -8 -54 32 -85 21 -18 56
-46 76 -63 20 -17 47 -37 60 -44 31 -16 140 -29 166 -20 11 4 39 10 61 13 l42
7 -12 -33 c-18 -50 -39 -85 -108 -182 -35 -50 -69 -101 -76 -115 -22 -44 -73
-124 -114 -178 -23 -29 -38 -55 -36 -58 3 -3 -3 -15 -13 -27 -10 -12 -52 -65
-93 -117 -73 -92 -94 -127 -59 -99 16 13 16 12 0 -11 -10 -14 -22 -26 -27 -26
-6 -1 -14 -2 -19 -3 -5 0 -11 -9 -15 -18 -3 -10 -31 -56 -60 -103 -30 -46 -52
-87 -49 -90 3 -3 13 6 22 20 9 13 32 39 51 58 19 18 36 37 36 42 1 6 2 14 3
18 0 4 16 16 34 27 17 10 52 38 76 62 24 24 48 43 52 43 5 0 9 5 9 10 0 7 -7
7 -21 0 -11 -7 -23 -10 -25 -7 -2 2 7 10 21 17 14 7 25 20 25 27 0 8 -4 12 -9
8 -5 -3 -12 -2 -15 3 -2 4 4 13 14 20 16 10 18 9 14 -3 -4 -8 -1 -15 5 -15 6
0 11 7 11 16 0 8 5 12 10 9 6 -3 10 1 10 10 0 9 15 25 34 36 19 11 36 29 39
39 3 11 13 20 22 20 15 0 15 -3 5 -15 -21 -25 -7 -24 18 1 12 13 18 24 12 24
-8 0 -8 6 0 20 6 11 14 18 19 16 4 -3 24 11 45 30 20 19 42 34 48 34 6 0 9 3
5 6 -3 3 -20 -1 -36 -9 -17 -9 -31 -12 -31 -7 0 5 16 14 35 21 19 7 37 21 41
31 3 10 10 17 16 15 6 -1 14 8 17 21 3 13 9 23 14 23 22 -2 27 0 27 12 0 6 16
29 35 49 19 20 35 41 35 46 0 5 17 31 38 58 49 62 87 127 107 184 30 85 -15
155 -123 189 -86 27 -128 30 -210 17 -37 -7 -74 -10 -84 -8 -19 4 -33 32 -15
32 8 0 8 3 -2 9 -11 7 -10 14 5 37 9 16 29 39 43 52 21 19 23 22 6 16 -15 -4
-13 0 9 21 16 15 38 37 48 48 11 12 17 16 13 10 -4 -8 0 -13 9 -13 9 0 13 6
10 14 -3 8 4 19 16 26 20 11 20 12 4 24 -18 13 -64 10 -64 -5 0 -5 -5 -9 -10
-9 -7 0 -6 6 1 18 12 19 79 29 79 12 0 -7 6 -7 20 0 11 6 20 15 20 21 0 6 -4
7 -10 4 -5 -3 -10 -1 -10 4 0 6 7 11 16 11 42 0 174 131 174 173 -1 29 -33 67
-57 66 -10 0 -36 -9 -58 -19z m-195 -144 c0 -3 -4 -8 -10 -11 -5 -3 -10 -1
-10 4 0 6 5 11 10 11 6 0 10 -2 10 -4z m80 -145 c0 -4 -12 -13 -27 -20 -22
-10 -25 -10 -15 2 7 8 10 16 7 18 -2 3 5 5 15 6 11 1 20 -2 20 -6z m-231 -86
c-12 -19 -23 -35 -26 -35 -2 0 -3 3 -1 8 22 45 33 62 39 62 5 0 -1 -16 -12
-35z m-256 -1275 c-3 -12 -8 -19 -11 -16 -5 6 5 36 12 36 2 0 2 -9 -1 -20z"/>
<path d="M1476 1673 c-6 -14 -5 -15 5 -6 7 7 10 15 7 18 -3 3 -9 -2 -12 -12z"/>
<path d="M871 1288 c0 -7 6 -29 13 -47 9 -25 15 -31 20 -22 5 8 3 16 -4 21 -7
5 -11 19 -8 34 4 18 1 26 -8 26 -8 0 -14 -6 -13 -12z"/>
<path d="M913 1205 c-10 -11 -9 -13 6 -12 11 1 17 7 14 14 -6 16 -5 16 -20 -2z"/>
<path d="M1452 484 c-30 -21 -28 -36 3 -22 14 6 25 17 25 25 0 16 -1 16 -28
-3z"/>
</g>
</svg>
